<svg width="117" height="127" viewBox="0 0 117 127" fill="none" xmlns="http://www.w3.org/2000/svg">
<path fill-rule="evenodd" clip-rule="evenodd" d="M89.0103 58.08C88.9781 59.8888 88.7285 60.0817 86.981 59.728C86.5863 59.6556 86.2159 59.4627 85.8374 59.3421C86.1434 58.3534 86.981 57.9112 87.8185 57.5012C88.5674 57.1395 88.5835 57.1717 89.0103 58.08Z" fill="#93BD40"/>
<path fill-rule="evenodd" clip-rule="evenodd" d="M38.7689 68.1444C38.6964 68.1444 38.6239 68.1444 38.5354 68.1444C37.9072 68.265 37.2871 68.3936 36.667 68.5303C36.5382 68.5624 36.4174 68.6026 36.2885 68.6348C36.1838 68.6669 36.055 68.6669 35.9342 68.691L35.7409 68.7232C35.5637 68.7795 35.3866 68.8679 35.2014 68.9322C35.0806 68.9644 34.9678 69.0046 34.8631 69.0528C34.6698 69.1975 34.4363 69.2457 34.2028 69.2457C34.0256 69.2618 33.8645 69.3502 33.7035 69.4226C33.5424 69.4949 33.3813 69.5833 33.2203 69.6718C31.6338 70.13 30.2648 71.0705 28.7669 71.7056C30.1762 71.0866 31.4808 70.2184 32.9545 69.7441C33.1156 69.6879 33.2766 69.5994 33.4377 69.511C33.5263 69.4547 33.631 69.4065 33.7196 69.3502C33.8645 69.2779 34.0014 69.2296 34.1625 69.2055C34.3236 69.1894 34.4685 69.1493 34.6054 69.0849C34.7504 69.0126 34.8873 68.9402 35.0483 68.9081C35.2094 68.8518 35.3705 68.7875 35.5315 68.7312C35.6604 68.6991 35.7812 68.675 35.9261 68.6589C36.1597 68.6026 36.4093 68.5544 36.6429 68.4981C37.2468 68.3052 37.875 68.1444 38.5112 68.1123C38.7447 68.056 38.9783 68.0238 39.1877 67.9676C39.0669 68.056 38.9058 68.0962 38.7689 68.1444ZM23.7578 86.6577C23.7578 86.9229 23.7578 87.2043 23.7739 87.4937C23.7417 87.2043 23.7417 86.9229 23.7578 86.6577ZM23.7578 85.0499C23.7578 85.3313 23.7417 85.6367 23.7417 85.9502C23.7256 85.5965 23.7015 85.2268 23.5968 84.8731C23.5484 84.9052 23.5484 84.8891 23.5726 84.8731C23.6209 84.8409 23.7337 84.8088 23.7578 85.0499ZM27.1804 57.4207C27.1804 57.3323 27.1804 57.2439 27.1804 57.1554C27.1965 57.3323 27.1804 57.5252 27.1804 57.7021V57.7583C27.1804 58.0075 27.1804 58.2326 27.1804 58.4818C27.1965 58.731 27.2529 58.9802 27.2851 59.2053L27.3415 59.3822C27.3576 59.5269 27.3737 59.6796 27.3979 59.8404C27.3656 59.6314 27.3254 59.4143 27.2932 59.2053C27.2207 58.9561 27.1885 58.7069 27.1885 58.4818C27.1724 58.2326 27.1563 58.0075 27.1885 57.7583C27.1804 57.6538 27.1804 57.5252 27.1804 57.4207ZM30.2487 56.8741C30.1923 56.5043 30.1198 56.1345 30.0554 55.7245C30.1762 56.1988 30.2084 56.5525 30.2487 56.8741ZM114.621 66.6572C112.52 63.5623 110.096 60.7327 107.494 58.0397C105.803 56.3435 104.072 54.6554 102.348 52.9994C102.26 52.927 102.155 52.8547 102.042 52.8065L101.897 52.718C101.809 52.6457 101.72 52.5733 101.632 52.509L101.503 52.4045L101.269 52.1714L101.14 52.0508L100.907 51.8177C100.818 51.7293 100.746 51.6569 100.657 51.5685C100.375 51.3595 100.086 51.2469 99.7876 51.4961C97.6857 55.2261 94.3839 56.8419 90.1802 56.8741C89.7695 56.8741 89.3587 56.9303 89.1091 57.3484C88.7145 58.514 89.1091 59.6153 89.4634 60.6764C89.8017 61.7054 91.0499 62.2842 92.3143 62.1234C93.4739 61.9787 93.7075 61.0944 93.7719 60.1217C93.7397 59.4465 93.5786 58.8838 92.4914 58.8275C93.6511 58.8436 94.4 59.2535 95.1651 59.6394C96.1476 60.1539 97.1784 60.4915 98.2494 59.8484C99.1433 59.3902 100.013 58.924 100.802 58.4336C100.069 59.0043 99.095 59.3339 98.3058 59.9529C98.2011 61.5124 98.0884 63.0478 97.8468 64.5913C97.7018 65.2103 97.7904 65.8614 97.6535 66.5045C97.6213 66.7859 97.5649 67.0511 97.4924 67.3164C97.3314 68.1123 96.9931 68.8759 96.7999 69.6557C96.7676 69.8325 96.7435 70.0255 96.7274 70.2184C96.671 70.4274 96.6388 70.6445 96.6227 70.8535C96.6066 71.3519 96.6066 71.8422 96.6227 72.3406C96.6227 72.4853 96.6388 72.622 96.6388 72.7667C96.8321 74.1494 97.283 75.4356 97.9434 76.6253C98.0159 76.7298 98.0723 76.8343 98.1447 76.9468C98.2655 77.1237 98.3541 77.2845 98.4266 77.4452C98.7648 77.9597 99.1353 78.434 99.546 78.9163C99.9889 79.3585 100.44 79.7845 100.867 80.2427C100.424 79.8006 99.9567 79.3424 99.5138 78.9003C98.9984 78.3536 98.5715 78.5466 98.1206 78.9324C98.0481 79.0208 97.9595 79.0932 97.8548 79.1816C97.7662 79.254 97.6937 79.3263 97.6052 79.3906C95.5355 81.2315 93.1679 82.2926 90.3493 82.1881C93.1518 82.2926 95.5033 81.1833 97.6052 79.3906C97.734 79.27 97.8709 79.1575 97.9998 79.0369L98.1286 78.9324C98.5554 78.4742 98.6843 78.016 98.4508 77.4452C98.2736 77.18 98.1125 76.9147 97.9676 76.6494C97.2508 75.5159 96.8401 74.2458 96.6871 72.8953V72.7908L96.671 72.6863C96.671 72.5818 96.671 72.4773 96.671 72.3647C96.6549 71.8663 96.6388 71.376 96.671 70.8776V70.757C96.6871 70.3872 96.7596 70.0335 96.8482 69.6959C96.9931 68.9 97.3314 68.1364 97.5407 67.3566C97.573 67.1798 97.6132 66.9868 97.6293 66.7939C97.6615 66.7055 97.6857 66.6331 97.7018 66.5447C97.7179 66.4402 97.7179 66.3518 97.7179 66.2473C97.8629 65.6604 97.5246 65.2906 97.1461 64.9369C95.7207 63.6427 94.0618 62.8308 92.121 62.6379C89.4151 62.3565 87.2005 63.3774 85.2436 65.1138C84.7282 65.7328 84.1 66.2633 83.6893 66.81C83.9229 66.1347 85.1147 65.8694 84.7604 64.7601C83.7054 63.49 82.28 62.8308 80.766 62.3163C79.1313 62.1234 77.5045 62.1073 75.8697 62.3485C73.5182 63.0398 71.964 64.7521 70.4339 66.4884C69.7413 67.2843 69.9346 67.654 70.9895 67.9193C72.0767 68.2007 73.2202 68.3052 74.3074 68.6107C74.5571 68.7152 74.8228 68.7312 75.0886 68.8197C75.2819 68.8357 75.4671 68.9242 75.6603 68.9804C78.5112 69.8647 81.2573 71.0142 83.7538 72.6622C81.1687 70.9821 78.3179 69.8325 75.3946 68.892C75.2013 68.8357 75 68.8036 74.8067 68.7312C74.541 68.6991 74.2752 68.6107 74.0095 68.5383C72.7451 68.2891 71.513 67.9676 70.2164 67.863C69.7735 67.7746 69.3064 67.7907 68.8635 67.8068C68.4206 67.8229 67.9374 67.8229 67.5992 68.1926C67.3334 68.4901 67.3656 68.9001 67.2207 69.5351C67.3092 68.474 67.5428 67.7505 67.7038 67.0029C68.0984 64.117 69.3467 61.4964 70.3211 58.7953C70.909 57.1635 71.7868 55.6441 72.7854 54.2132C74.9436 51.1666 77.6173 48.7469 81.1043 47.2758C82.0868 46.8658 82.5458 46.2308 82.2478 45.1134C81.7646 43.4172 81.6438 41.713 82.1029 39.9605C82.3203 39.1486 81.9418 38.6181 81.1204 38.4734C80.2104 38.3126 79.3406 38.0634 78.5192 37.6052C77.5528 37.0585 76.7153 37.2515 75.8456 37.8865C74.6376 38.7869 73.5102 39.7998 72.3344 40.7564C71.6418 41.3271 70.8043 41.6406 69.8943 41.2307C68.9521 40.8046 68.8474 39.9364 68.8635 39.0361C68.8635 36.8093 68.8796 34.5585 68.8635 32.3318C68.8474 30.4909 68.7749 30.3864 66.9952 30.1934C64.3537 29.9121 61.664 29.8397 59.4252 28.1194C59.0467 27.8381 58.5716 27.9104 58.1045 28.0632C54.8591 29.2449 54.4001 29.9603 54.6819 33.4089C54.698 33.6421 54.7302 33.8672 54.7705 34.0842C54.9879 35.4669 54.7705 36.8415 54.4001 38.1357C53.7558 40.3866 51.7264 40.9654 49.8742 39.5345C49.3024 39.0763 48.8434 38.5055 48.2716 38.0312C47.2408 37.163 46.4355 37.2354 45.7912 38.3849C44.849 40.0811 43.4719 41.1824 41.6761 41.8175C40.6775 42.1712 40.0896 42.8625 40.0735 43.9799C40.0735 44.4381 40.001 44.8963 39.84 45.3224C39.4615 46.2951 39.7514 47.1311 40.4278 47.8546C42.1351 49.7115 43.778 51.6087 44.7604 53.9801C44.8893 54.2615 45.0665 54.583 45.4772 54.5107C45.8718 54.4383 45.9765 54.1007 45.9926 53.7872C46.0489 52.5814 46.8301 52.5492 47.724 52.6537C47.9012 52.6698 48.0783 52.71 48.2797 52.7261C52.1452 53.1843 55.9463 54.1087 59.8279 54.3579C62.1955 54.5187 64.5873 54.6554 66.9227 55.0975C67.583 55.2181 68.2595 55.3467 68.1146 56.247C67.7924 58.1362 67.422 60.0172 66.4959 61.7295C66.2623 62.1555 65.9644 62.4932 65.449 62.5092C63.6692 62.5816 61.8814 62.7022 60.158 62.0832C59.4816 61.834 59.087 61.4642 58.9662 60.7407C58.8051 59.7519 58.6118 58.7632 58.3219 57.8066C58.0884 57.0107 57.7824 56.1425 56.8402 56.022C55.9865 55.9175 55.608 56.6731 55.1812 57.276C55.0201 57.5091 54.8993 57.7503 54.7705 57.9834C54.3276 58.7793 54.1504 59.6957 53.6108 60.4433C53.2726 61.0301 52.7169 61.1828 52.0969 61.1668C50.454 61.1105 48.8192 60.9578 47.265 60.3549C46.8865 60.2102 46.516 60.0574 46.2825 59.6635C46.1053 59.342 45.8557 58.9722 45.445 59.133C45.0745 59.2777 45.0745 59.7198 45.0342 60.0896C44.9054 61.9626 44.4464 63.7713 44.1081 65.5961C43.8746 66.8904 43.6974 68.2007 43.8424 69.1573C43.6249 68.0962 43.5766 67.9193 42.5941 67.8791C42.2559 67.8952 41.9016 67.8791 41.5633 67.863C41.2815 67.863 40.9916 67.863 40.7097 67.863C40.605 67.863 40.4762 67.863 40.3715 67.863C40.0332 67.8791 39.7111 67.8952 39.389 67.9676L39.4373 67.9515C39.7433 67.847 40.0654 67.847 40.3634 67.863C40.5245 67.863 40.6694 67.847 40.8305 67.847C41.0801 67.847 41.3137 67.847 41.5633 67.863H41.813C42.1351 67.863 42.3848 67.8631 42.5941 67.8791C42.9163 67.8631 43.2142 67.7907 43.5202 67.646C43.9632 66.9707 43.8746 66.2633 43.6974 65.5398C43.6088 65.3308 43.5041 65.1299 43.327 64.9691C39.6225 61.6812 34.7021 61.7456 31.0057 64.8646C30.5788 65.2344 30.0634 65.6283 30.2406 66.3518C30.3695 66.601 30.5627 66.7778 30.7399 66.9707C30.5466 66.81 30.3614 66.617 30.1842 66.4402C28.7749 65.1701 27.1563 64.2295 25.296 63.8196C23.1941 63.3613 21.3741 63.9241 19.7152 65.3389C19.0226 65.9418 18.8051 66.5608 18.8051 67.2119C18.8776 67.6701 18.9501 68.1524 19.0387 68.6107L19.087 68.8036C19.1031 68.9483 19.1273 69.0849 19.1434 69.2296C19.2722 69.5673 19.232 69.921 19.2722 70.2747V70.2908C19.3044 70.4676 19.3447 70.6284 19.3608 70.8052V70.8213V70.8374C19.6668 72.6059 19.538 74.3584 19.079 76.1108C18.7407 77.7025 17.9354 79.0691 16.9207 80.3231C16.7274 80.6607 16.4375 80.926 16.212 81.1511C16.051 81.328 15.906 81.4727 15.8013 81.5932C15.8738 81.4727 16.0349 81.328 16.212 81.1511C16.4617 80.8858 16.7516 80.5643 16.9932 80.2106C18.0643 78.9163 18.8132 77.4533 19.1353 75.8053C19.5621 74.1735 19.6346 72.5175 19.3689 70.8535V70.8374C19.3125 70.6766 19.2964 70.4998 19.2803 70.3229V70.339V70.3229C19.2481 70.0576 19.2481 69.7924 19.2078 69.5432C19.1353 69.3341 19.1192 69.101 19.079 68.892L19.0467 68.683C18.9179 68.2087 18.8132 67.7264 18.8132 67.2843C18.5313 65.2826 18.4347 63.289 19.0065 61.2713C19.1514 60.797 19.4011 60.1941 18.7568 59.8002C18.5072 59.768 18.2575 59.7118 18.0401 59.6394C17.7743 59.6073 17.5569 59.5349 17.3958 59.4063C17.5247 59.4786 17.7502 59.5671 18.0401 59.6394C18.4508 59.7118 18.9501 59.7439 19.3769 59.9609C20.3916 60.1056 21.3902 60.1539 22.4049 59.8725C22.123 59.977 22.0103 60.2262 21.9459 60.4915C21.8009 61.5848 22.268 62.3887 23.2988 62.7022C24.5954 63.088 25.8275 62.6137 26.9147 61.9385C27.3254 61.6893 27.4703 61.3517 27.5025 60.9819C27.5025 60.8934 27.4864 60.805 27.4864 60.7166C27.4864 60.4835 27.4703 60.2584 27.4381 60.0253C27.4864 60.3629 27.5267 60.6764 27.5106 60.998C27.6153 62.1475 28.4367 62.5173 29.5561 61.9546C29.999 61.7214 30.4097 61.4562 30.6594 60.998C30.8043 60.6442 30.748 60.2584 30.7319 59.8806C30.6996 59.7359 30.6594 59.6153 30.603 59.4706L30.5869 59.3098C30.5386 59.1651 30.4983 59.0285 30.4983 58.8838V58.6828C30.4258 58.2246 30.3695 57.7423 30.305 57.2519L30.3372 57.4127C30.4419 57.8387 30.4983 58.2648 30.4983 58.6908C30.5305 58.8998 30.5466 59.1169 30.5869 59.3259L30.6594 59.4867C30.8204 59.8243 30.7319 60.2262 30.9654 60.5317C32.4069 61.1185 33.6068 60.588 34.082 59.133C34.0659 58.7069 33.8323 58.3532 33.5827 58.0317C32.4794 56.6651 31.6741 55.1297 31.0862 53.4817C30.6916 52.3483 29.9668 51.9383 28.8072 51.9624C26.7939 51.9945 24.7806 52.0187 22.7673 51.9463C21.9298 51.9463 21.0922 51.9463 20.2386 51.9624C19.385 52.1232 18.5072 52.0669 17.6374 52.0669C15.7127 52.0508 14.3598 53.0074 13.3934 54.583C13.1599 54.9689 13.0391 55.4351 12.7331 55.7728C10.0433 58.9722 7.56296 62.3404 4.88931 65.5398C2.62638 68.265 1.25734 71.3438 0.774155 74.8648C0.629199 75.8938 0.741943 76.9549 0.315126 77.9436C0.258754 78.3536 0.258754 78.7556 0.282913 79.1655C0.387604 81.4164 0.210435 83.1286 0.548667 84.2943C0.919112 85.5885 0.758049 85.6046 2.07876 85.3393C3.25452 85.1303 5.71879 85.693 5.62215 85.9744C5.58994 86.4728 5.8879 86.8024 6.21003 87.1078C8.175 89.0371 10.2205 90.8378 12.7492 91.9713C16.0832 93.4745 19.5541 94.2221 23.2505 93.7961C23.9592 93.7076 24.4987 93.4745 24.4262 92.6305C24.4101 92.3973 24.3377 92.1883 24.2652 91.9954L24.2491 91.8185C24.2169 91.6738 24.1927 91.5372 24.1766 91.3764V91.3443C24.1041 91.0227 24.0477 90.7092 24.0155 90.3716C23.9269 89.7847 23.8545 89.222 23.8867 88.6352C23.8706 88.4744 23.8706 88.3136 23.8545 88.1609C23.8223 87.9841 23.7981 87.8072 23.782 87.6304C23.7981 87.8072 23.8303 87.9841 23.8545 88.1609C23.8706 88.2493 23.8867 88.3378 23.9028 88.4101V88.6432C23.9431 89.2301 23.9753 89.8089 24.0316 90.3796C24.088 90.7012 24.1363 91.0147 24.1927 91.3523V91.3684V91.3844C24.2088 91.5291 24.2249 91.6819 24.2652 91.8266L24.3377 92.0034C24.5873 92.6546 24.4262 93.3861 24.6759 94.0372C26.0852 99.1338 28.7186 103.346 33.4619 106.039C33.8404 106.248 34.1625 106.449 34.1947 107.044C34.4766 110.975 36.2805 113.909 39.9527 115.589C40.8063 115.485 41.6841 115.469 42.5217 115.268C43.5364 115.034 44.6235 115.252 45.606 114.809L46.21 114.777C46.6529 114.777 48.6018 117.028 49.0447 116.988C53.1277 116.634 55.6966 118.668 59.7957 118.7C60.7057 118.7 63.339 116.723 63.4518 117.623C63.8303 117.768 64.4182 117.599 64.9819 117.438C65.4087 117.317 65.8194 117.189 66.1093 117.197C67.1804 117.229 68.0662 116.666 68.944 116.096C69.8943 115.485 70.8285 114.874 71.9801 115.018C73.2605 114.279 74.2752 113.234 75.298 112.173C75.8375 111.433 76.4576 110.758 76.812 109.89C76.9569 109.536 77.2951 109.126 76.9166 108.756C76.5945 108.459 76.2241 108.74 75.8858 108.829C75.7087 108.885 75.5637 108.989 75.4107 109.078C75.3382 109.134 75.306 109.15 75.3221 109.166C75.451 109.311 75.1933 109.166 75.3543 109.078C76.7475 108.386 78.1166 107.647 79.4856 106.915C82.6183 105.283 85.6301 103.443 87.9172 100.669C89.0769 99.2544 90.1802 97.7833 90.2365 95.8379C90.2204 95.7173 90.1802 95.5887 90.1319 95.4681C89.85 95.0099 89.3668 94.9054 88.8836 94.7447C88.03 94.4472 87.1763 94.198 86.3871 93.7157C86.2583 93.6996 86.2261 93.6433 86.2583 93.5388L86.4355 93.6996C86.524 93.7559 86.6287 93.8041 86.7173 93.8604C86.8623 93.9327 86.9992 94.0051 87.1441 94.0694C87.2327 94.1257 87.3374 94.1578 87.4501 94.19C87.5951 94.2221 87.7481 94.2623 87.8931 94.3347C87.9817 94.3668 88.0702 94.407 88.1749 94.4392C88.3682 94.4955 88.5695 94.5276 88.7467 94.616C88.8353 94.6482 88.9239 94.6884 89.0286 94.7205C89.2218 94.7768 89.4232 94.809 89.6003 94.9135C89.6889 94.9456 89.8017 95.0019 89.8822 95.018C90.148 95.0903 90.3976 95.1948 90.6714 95.2832C90.7761 95.3154 90.905 95.3395 91.0096 95.3556C91.4365 95.3877 91.8633 95.444 92.274 95.5887C92.4673 95.645 92.6686 95.6771 92.8619 95.6771C93.49 95.6932 94.1101 95.6932 94.7302 95.6771C94.9476 95.6611 95.1409 95.6209 95.3342 95.5726C95.7127 95.4521 96.0992 95.3797 96.4938 95.2672C96.6227 95.2109 96.7435 95.1627 96.8482 95.0903C98.8454 93.571 100.553 91.7301 102.413 90.05C103.178 89.3587 103.983 88.8442 104.998 88.6191C106.963 88.1609 108.847 87.5017 110.539 86.4085C111.537 85.7171 112.447 84.9052 113.744 84.7444C114.436 84.656 114.71 83.9486 114.903 83.3457C115.491 81.537 115.958 79.6961 116.329 77.8391C116.546 76.6735 116.611 75.4999 116.667 74.3182C116.78 71.5287 116.176 68.9644 114.621 66.6572Z" fill="#9AC340"/>
<path fill-rule="evenodd" clip-rule="evenodd" d="M38.429 114.375C37.9458 114.094 37.4707 113.829 37.1244 113.386C35.9809 111.883 35.0386 110.292 34.5716 108.435C34.3944 107.727 34.2011 107.036 34.9823 106.473C34.7165 106.312 34.5716 106.208 34.4105 106.119C30.7544 104.351 28.1693 101.553 26.462 97.9279C25.8581 96.6497 25.4473 95.2912 24.9642 93.9648C24.8353 93.2895 24.8031 92.5982 24.4649 92.0033C24.4488 91.8426 24.4327 91.6657 24.3924 91.5049C24.1991 90.1946 24.2474 88.8682 23.9334 87.574V84.4791C23.8287 84.4791 23.7159 84.4791 23.5951 84.4791C23.5226 85.8055 23.4904 87.1319 23.6515 88.4583C23.6193 89.6962 23.7562 90.902 24.1508 92.0837C24.1669 92.2445 24.183 92.4053 24.2072 92.5821C24.336 93.378 23.7965 93.4503 23.2086 93.4825C18.5377 93.804 14.2293 92.7429 10.2994 90.1384C8.84176 89.1817 7.62574 87.9438 6.28891 86.8264C6.18422 85.1784 2.67305 84.8408 1.33623 85.1624C0.281267 83.6029 0.893306 75.6445 1.07048 74.6316C1.55366 71.7618 2.46367 69.0768 4.29979 66.7536C5.69298 65.0012 7.11839 63.2889 8.45521 61.4963C10.2591 59.0927 12.361 56.9303 13.9072 54.3096C14.7125 52.927 16.0654 52.2597 17.7002 52.2356C18.4894 52.2356 30.0135 52.2678 30.8027 52.2678C30.8832 51.6408 27.372 51.681 25.238 51.7211C24.4407 51.7372 23.8367 51.7533 23.6918 51.7372C23.4502 51.7051 22.3791 51.7211 21.0745 51.7372C19.7618 51.7533 18.2156 51.7694 17.0238 51.7372C15.2037 51.8578 14.0119 52.9028 13.126 54.3739C12.7153 55.0492 12.3207 55.7003 11.8456 56.3032C9.18805 59.6152 6.53051 62.9433 3.89713 66.2633C1.48924 69.3099 -1.07166 76.3519 0.490649 85.3955C0.667818 85.5563 0.756403 85.5402 0.869147 85.4839C1.44092 85.5161 5.37891 85.4518 6.12785 87.5177C7.19892 88.4341 8.24583 89.3586 9.3169 90.275L9.44575 90.3313C13.7944 93.2494 18.5539 94.5999 23.7965 94.013C24.3682 93.9407 24.4568 94.3346 24.6904 94.632C24.7065 94.7767 24.6904 94.9134 24.7226 95.042C26.1641 99.7366 28.6928 103.627 33.0817 106.103C33.5488 106.369 33.7743 106.634 33.8629 107.237C34.33 110.565 35.554 113.451 38.6626 115.219C38.8075 115.308 38.9283 115.468 39.0572 115.589C39.3551 115.661 39.6611 115.661 39.9511 115.573C39.5645 114.954 38.9766 114.689 38.429 114.375Z" fill="#223E21"/>
<path fill-rule="evenodd" clip-rule="evenodd" d="M102.541 52.8542L102.509 52.8145L102.541 52.8542Z" fill="#1B1614"/>
<path fill-rule="evenodd" clip-rule="evenodd" d="M53.9312 82.0597C54.5351 81.4246 55.3002 81.5452 56.033 81.6899C57.5309 81.9391 58.9724 82.325 60.3978 82.8555C62.8379 83.7558 65.2619 84.7527 67.6134 85.862C69.361 86.6739 71.1246 87.3652 73.0493 87.6868C76.8826 88.3058 80.1925 87.2447 83.156 84.8572C84.8874 83.4745 86.2565 81.7622 87.4161 79.8812C87.6255 79.5435 87.6658 78.9969 88.1812 78.9246C88.3906 79.0853 88.3422 79.222 88.2859 79.3345C86.0068 83.4906 82.9225 86.698 78.1631 87.9923C75.3686 88.7559 72.6225 88.5067 69.965 87.4456C67.4121 86.4167 64.9398 85.2511 62.387 84.2221C60.3898 83.4102 58.3765 82.6787 56.2344 82.3089C55.5015 82.1642 54.7365 82.2365 53.9312 82.0597Z" fill="#223E21"/>
<path fill-rule="evenodd" clip-rule="evenodd" d="M70.3681 102.976C69.4018 102.856 68.4757 102.639 67.5657 102.301C63.9095 100.935 61.3245 98.4264 59.5286 95.026C58.675 93.3942 57.7811 91.8266 56.6053 90.4038C55.502 89.0613 54.286 87.7992 52.6996 87.0194C52.2405 86.7863 51.7734 86.4165 51.1856 86.6497C51.1453 87.0757 51.4674 87.1079 51.7171 87.1963C53.2713 87.759 54.4632 88.804 55.5343 90.0099C56.7664 91.3764 57.7972 92.8797 58.6186 94.5196C60.3259 97.92 62.6452 100.693 66.1966 102.325C66.712 102.558 66.8409 102.912 66.712 103.427C66.4463 104.472 66.0195 105.412 65.1417 106.079C64.8034 106.345 64.5377 106.61 64.5135 107.068C64.4652 107.968 64.3525 108.877 64.2639 109.793C63.7807 111.313 62.2667 115.035 61.3969 116.393C61.6305 116.514 61.9123 116.642 62.1459 116.57C62.7177 115.332 64.441 111.795 64.5699 110.412C64.9645 109.512 64.892 108.539 65.0692 107.599C65.1578 107.124 65.2625 106.747 65.641 106.433C66.4463 105.758 66.8892 104.89 67.1711 103.901C67.4368 102.984 67.4529 103.017 68.4918 103.226C69.289 103.386 70.1105 103.796 70.9641 103.459C70.9399 102.936 70.6178 103.009 70.3681 102.976Z" fill="#223E21"/>
<path fill-rule="evenodd" clip-rule="evenodd" d="M22.6859 80.2667C23.008 80.1943 23.0805 80.4274 23.1852 80.6204C25.2709 84.3905 28.6613 85.8214 32.7603 85.8777C36.0943 85.9099 39.2834 85.1864 42.4241 84.1253C44.8159 83.3134 47.111 82.3407 49.3579 81.1911C49.5512 81.0866 49.7525 80.9821 49.9619 80.8696C50.1068 80.7972 50.2276 80.8857 50.2679 81.0304L50.2357 81.2795C50.0182 81.4403 49.7927 81.577 49.535 81.7056C45.436 83.7796 41.2081 85.4356 36.65 86.1671C34.1938 86.553 31.7456 86.6414 29.3055 86.0224C26.4547 85.2989 24.2965 83.651 22.8308 81.1188C22.7261 80.8535 22.3879 80.6043 22.6859 80.2667Z" fill="#223E21"/>
<path fill-rule="evenodd" clip-rule="evenodd" d="M33.26 83.8122C32.5674 83.8283 31.891 83.7801 31.2789 83.4264C30.4414 82.9521 30.3528 82.1723 31.0454 81.5292C32.2534 80.4119 35.5874 80.3234 36.8759 81.3685C37.5846 81.9553 37.5362 82.5019 36.6987 82.9601C35.6115 83.5228 34.4519 83.756 33.26 83.8122Z" fill="#223E21"/>
<path fill-rule="evenodd" clip-rule="evenodd" d="M75.3779 84.5917C74.5404 84.6641 73.8076 84.5596 73.0989 84.3988C72.5432 84.2782 71.9553 84.1335 71.9956 83.4261C72.0278 82.7509 72.5835 82.574 73.1392 82.4213C74.331 82.0836 75.5068 82.1881 76.6503 82.566C77.1335 82.7267 77.5925 82.9357 78.0435 83.1528C78.2932 83.2734 78.4864 83.4904 78.4381 83.8039C78.3818 84.1014 78.1724 84.2782 77.8825 84.3345C76.9966 84.447 76.1591 84.656 75.3779 84.5917Z" fill="#223E21"/>
<path fill-rule="evenodd" clip-rule="evenodd" d="M80.9176 91.457C81.1673 93.6838 78.8721 96.7465 76.7461 97.1565C77.1568 96.3285 78.0104 96.1115 78.5097 95.5488C79.0654 94.9298 79.5808 94.3108 79.9351 93.5632C80.2734 92.8719 80.5794 92.1644 80.9176 91.457Z" fill="#223E21"/>
<path fill-rule="evenodd" clip-rule="evenodd" d="M26.8983 90.9585C27.1802 92.9601 28.4687 94.0936 30.0551 95.01C30.2484 95.1145 30.5142 95.2592 30.3773 95.5245C30.2001 95.8621 29.9102 95.6692 29.6847 95.5406C28.5573 94.9055 27.5426 94.1579 26.9386 92.9923C26.6084 92.3412 26.399 91.682 26.8983 90.9585Z" fill="#223E21"/>
<path fill-rule="evenodd" clip-rule="evenodd" d="M81.6821 94.0935C83.6793 92.7511 84.7987 90.6771 86.2241 88.6272C86.2241 89.7928 85.4027 91.2076 83.8001 92.8958C83.2364 93.4746 82.6968 94.1981 81.6821 94.0935Z" fill="#223E21"/>
<path fill-rule="evenodd" clip-rule="evenodd" d="M26.0603 87.3655C26.0603 87.1565 26.012 86.8912 26.2938 86.8189C26.4951 86.7626 26.6562 86.8751 26.6723 87.0841C26.8012 88.6276 27.8883 89.5601 28.8467 90.573C29.0802 90.8061 29.6359 91.0312 29.3137 91.3849C28.9916 91.7547 28.6856 91.2643 28.444 91.0473C27.6387 90.372 26.9783 89.5601 26.4629 88.6597C26.2374 88.2658 26.0442 87.8478 26.0603 87.3655Z" fill="#223E21"/>
<path fill-rule="evenodd" clip-rule="evenodd" d="M17.3364 80.886C20.0825 83.1529 19.2289 82.5661 22.4341 83.0645C21.3147 84.2864 18.1981 83.0806 17.3364 80.886Z" fill="#223E21"/>
<path fill-rule="evenodd" clip-rule="evenodd" d="M43.7044 67.5978C42.0454 67.5094 40.1046 67.5255 38.4779 67.9515C37.6001 68.0078 36.7867 68.2329 35.9653 68.5142C35.7881 68.6187 35.5546 68.5866 35.3935 68.7072C35.2164 68.7393 35.0392 68.7956 34.854 68.8278C34.7493 68.884 34.6365 68.9162 34.548 68.9725C34.3708 69.0046 34.2097 69.0448 34.0326 69.077C33.9279 69.1493 33.8151 69.1975 33.6943 69.2538L33.501 69.3101L33.4286 69.3985L33.4447 69.4869C33.34 69.4709 33.2353 69.4709 33.1226 69.503C31.1093 70.0496 28.6853 71.376 28.041 72.4613C29.9657 71.4564 31.681 70.532 33.4769 69.8085L33.6057 69.6477L33.5896 69.6155C33.6782 69.6477 33.7829 69.6477 33.8957 69.5995C34.0406 69.5673 34.2017 69.5271 34.3386 69.511C34.5157 69.3905 34.7493 69.4387 34.9103 69.302C34.9989 69.3181 35.0875 69.286 35.16 69.2458C35.2888 69.1573 35.3935 69.0528 35.5546 69.0528C36.8189 68.7876 38.0672 68.5062 39.3315 68.2409C39.7583 68.2248 40.2013 68.1847 40.6281 68.1686C41.828 68.0962 42.4642 68.1203 42.883 68.1364C43.2212 68.1525 43.4145 68.1686 43.64 68.1364C44.0748 68.0239 43.3823 68.04 43.7044 67.5978Z" fill="#223E21"/>
<path fill-rule="evenodd" clip-rule="evenodd" d="M60.7771 106.425C60.5999 106.409 60.4147 106.441 60.2375 106.481C58.2081 106.819 56.1546 106.94 54.1091 106.538C53.8594 106.481 53.5776 106.393 53.4326 106.731V106.875C55.8727 107.832 58.3531 107.406 60.8093 107.02C60.9704 107.004 61.0026 106.843 61.0026 106.723C61.0267 106.554 60.9059 106.441 60.7771 106.425Z" fill="#223E21"/>
<path fill-rule="evenodd" clip-rule="evenodd" d="M49.1579 106.393C48.3043 106.481 47.4507 106.586 46.589 106.674V106.602C46.0897 106.602 45.5904 106.602 45.0911 106.602C44.8414 106.602 44.5918 106.674 44.5918 106.939C44.5918 107.189 44.8414 107.293 45.0911 107.309C46.5004 107.47 47.9097 107.221 49.2948 107.044C49.4881 107.028 49.6733 106.899 49.6492 106.706C49.6411 106.441 49.4076 106.353 49.1579 106.393Z" fill="#223E21"/>
<path fill-rule="evenodd" clip-rule="evenodd" d="M51.5644 106.554C50.8155 107.422 50.7833 107.542 50.8557 109.014C50.7833 111.063 51.0007 112.213 51.8382 113.033C51.6772 111.602 51.5161 110.187 51.355 108.748C51.3148 108.033 51.8865 107.366 51.5644 106.554Z" fill="#223E21"/>
<path fill-rule="evenodd" clip-rule="evenodd" d="M96.2286 63.514C95.7696 63.2487 95.3186 62.8789 94.8032 62.7503C93.2006 62.3242 94.0381 60.9657 94.0381 60.8773C94.6824 60.0493 97.1064 60.7004 97.195 60.7004C97.9036 60.7888 97.7989 61.3516 97.5493 62.1152C97.5332 62.6056 97.7989 64.4465 96.2286 63.514ZM99.7961 78.8519C98.2982 77.0673 97.2835 75.0657 96.7843 72.7827C96.7843 72.0753 96.7843 71.3839 96.7843 70.6765C97.0178 69.3501 97.7345 68.1443 97.8231 66.7616C97.9842 66.0542 98.4271 63.6989 98.4593 63.2085C98.5479 62.1072 98.6043 60.9979 98.6767 59.8965C99.7961 59.3981 100.94 58.9078 101.528 57.6698C100.456 58.3049 99.3693 58.9399 98.2982 59.583C97.0661 59.9207 95.9065 59.8644 94.8273 59.0525C94.1992 58.5943 93.418 58.4656 92.6127 58.5219C92.2423 58.538 91.7913 58.4656 91.6544 58.9962C92.0087 59.2293 92.3631 59.0525 92.7255 59.0525C93.3697 59.0364 93.4583 59.4383 93.4905 59.9207C93.4422 60.2744 93.4019 60.6441 93.3133 60.9979C93.2409 61.3194 93.0637 61.5847 92.7416 61.7053C91.6141 62.1474 89.8908 61.231 89.6411 60.0252C89.4478 59.0846 89.3754 58.128 89.3915 57.1794C88.9808 57.3402 89.1418 57.7422 89.0371 58.0476C88.7553 59.3419 87.9902 59.6795 86.7742 59.2695C86.4923 59.165 86.1541 59.1489 85.8481 59.3258C85.7434 59.4464 85.6145 59.575 85.5099 59.6956C85.687 60.5638 86.4923 60.6843 87.0641 60.6683C88.3285 60.612 89.1499 61.1988 89.931 62.0349L89.6089 62.1233C88.4492 62.4207 87.3138 62.7744 86.3635 63.522C85.6145 64.1088 85.0428 63.9481 84.2777 63.4497C83.4966 62.9352 82.0148 61.6651 80.8551 62.0188C80.5572 62.0027 80.678 61.7374 80.6377 62.4931C82.047 62.9915 83.5046 63.9079 84.6482 64.8645L84.7529 64.9529L84.6482 64.8645C84.7931 65.3066 84.471 65.5156 84.2213 65.7889C83.7221 66.3195 83.2066 66.8501 82.9409 67.5736C83.8992 67.043 84.5435 66.1909 85.2602 65.4111C85.8159 65.0012 86.3474 64.5992 86.9192 64.2294C89.9632 62.2278 93.7643 62.4448 96.5427 64.7761C96.9856 65.1459 97.4849 65.4996 97.5735 66.1587C97.5413 66.2472 97.501 66.3517 97.4849 66.4401C97.1064 67.6218 96.6796 68.8115 96.5427 70.0656C96.3816 71.0543 96.3655 72.0672 96.5427 73.056C96.591 74.503 97.1869 75.7972 97.9117 77.0191C98.5882 78.1526 98.6043 78.1365 97.5896 79.0207C95.1656 81.143 92.4033 82.2443 89.1418 81.8022C88.86 81.77 88.4976 81.5529 88.3204 82.1398C89.7297 82.5819 91.1229 82.5498 92.508 82.2604C94.6985 81.8182 96.6232 80.7571 98.1936 79.1654C98.6767 78.667 99.0472 78.5304 99.5143 79.1092C100.086 79.8487 100.642 80.6285 101.56 80.934C101.648 80.8455 101.721 80.7571 101.809 80.6687C101.133 80.0899 100.473 79.4709 99.7961 78.8519Z" fill="#223E21"/>
<path fill-rule="evenodd" clip-rule="evenodd" d="M75.5226 68.6587C75.3777 68.6265 71.5847 67.9513 70.0707 67.477C71.6894 65.3146 73.4208 63.5862 75.8609 62.6618C75.8287 62.1955 75.6112 62.2759 75.3938 62.3483C75.265 62.3965 75.1361 62.4447 75.0395 62.3724C74.3469 62.2518 73.8315 62.6778 73.2758 62.9753C71.5122 63.964 70.4089 65.612 69.0882 67.0429C68.7338 67.3644 67.695 66.8982 67.8399 67.8387C68.2184 68.0477 68.6211 68.0236 69.0318 67.9995C69.3942 67.9834 69.7566 67.9593 70.0868 68.104C71.4236 68.313 75.2005 69.0285 75.2005 69.0285C76.2716 69.4384 77.3427 69.8082 78.3735 70.2343C79.3721 70.6603 80.3384 71.1909 81.3531 71.6169C82.3517 72.043 83.1731 72.871 84.3086 72.9594C81.6833 71.014 78.7117 69.5269 75.5226 68.6587Z" fill="#223E21"/>
<path d="M19.4958 34.2854C19.4878 34.4704 19.4878 34.6554 19.4878 34.8484V34.9771C19.4878 35.162 19.4958 35.3551 19.4958 35.54V34.2854Z" fill="white"/>
<path d="M43.7431 68.0963C43.719 68.1043 43.6868 68.1124 43.6465 68.1285C43.5821 68.1365 43.5177 68.1445 43.4452 68.1445C43.6143 68.3214 43.6787 68.6349 43.7915 69.1735C43.7431 68.852 43.7351 68.4902 43.7431 68.0963ZM58.8025 0C57.8603 0 56.91 0.0643101 55.9598 0.184891C51.2889 0.787798 47.4395 2.8216 44.6209 6.66413C43.9042 7.62074 43.3002 8.6497 42.8009 9.7269C42.5513 10.2735 42.2291 10.5388 41.5688 10.6272C36.8819 11.2462 33.6928 13.8267 31.9292 18.1515C31.5748 19.0197 31.0755 19.4297 30.2219 19.695C27.959 20.4024 25.9618 21.568 24.2545 23.232C21.2427 26.1501 19.6401 30.1855 19.4951 34.2853V35.5313C19.632 39.4301 21.0896 43.2887 23.876 46.1907C25.3014 47.6779 29.5616 50.0654 29.8112 50.8451C29.94 51.2551 30.0528 51.5927 30.1494 51.8982C30.5682 51.9866 30.8098 52.1072 30.7937 52.276C30.7132 52.276 30.536 52.276 30.2702 52.276C30.2783 52.3082 30.2863 52.3323 30.2944 52.3645C30.6165 52.6056 30.8581 52.9674 31.0353 53.4818C31.6232 55.1298 32.4285 56.6652 33.5317 58.0318C33.7814 58.3533 34.0149 58.707 34.031 59.1331C33.9908 59.2537 33.9425 59.3662 33.8941 59.4788C33.8941 59.6717 33.8539 59.8807 34.023 60.0334C34.5384 60.2264 35.0216 60.4434 35.4323 60.8293C36.0524 61.4322 36.7288 61.9788 37.5905 62.2119C38.0174 62.3004 38.4442 62.4451 38.871 62.5335C39.5475 62.7103 40.2078 62.9595 40.8682 63.1846C41.1661 63.2891 41.4883 63.3936 41.7782 63.5222C42.1084 63.6669 42.4385 63.7795 42.7848 63.7795C42.9056 63.7795 43.0264 63.7634 43.1553 63.7313C43.413 63.5544 43.6062 63.3534 43.719 63.1444C43.7431 63.0721 43.7512 63.0238 43.7592 63.0238C43.7592 63.0238 43.7592 63.048 43.7512 63.0882C43.7431 63.1042 43.7351 63.1203 43.727 63.1444C43.6304 63.4821 43.3566 64.4548 43.2036 64.8808C43.2036 64.8969 43.2036 64.921 43.2036 64.9371C43.2277 64.9612 43.26 64.9853 43.2841 65.0094C43.4613 65.1702 43.566 65.3631 43.6546 65.5802C43.8237 66.2795 43.9123 66.9548 43.5257 67.6059C43.5901 67.6059 43.6465 67.614 43.7029 67.614C43.5177 67.8712 43.6707 67.9677 43.7512 68.032C43.7834 67.2924 43.9123 66.4564 44.0572 65.6284C44.3954 63.8036 44.8625 62.0029 44.9833 60.1219C45.0155 59.7521 45.0155 59.3099 45.394 59.1652C45.4585 59.1411 45.5229 59.1251 45.5873 59.1251C45.8853 59.1251 46.0866 59.4305 46.2316 59.6958C46.4651 60.0817 46.8355 60.2424 47.214 60.3871C48.7683 60.99 50.4031 61.1508 52.0459 61.1991C52.0781 61.1991 52.1023 61.1991 52.1345 61.1991C52.7224 61.1991 53.2378 61.0302 53.5599 60.4756C54.0914 59.736 54.2766 58.8115 54.7196 58.0157C54.8484 57.7826 54.9692 57.5414 55.1303 57.3083C55.5329 56.7456 55.8792 56.0382 56.6282 56.0382C56.6765 56.0382 56.7329 56.0382 56.7892 56.0462C57.7314 56.1668 58.0375 57.035 58.271 57.8308C58.5529 58.7874 58.7542 59.7762 58.9153 60.765C59.0361 61.4884 59.4307 61.8663 60.1071 62.1074C61.1943 62.4933 62.2976 62.5898 63.4089 62.5898C64.0693 62.5898 64.7296 62.5576 65.398 62.5335C65.9134 62.5174 66.2195 62.1798 66.445 61.7537C67.3711 60.0334 67.7496 58.1604 68.0636 56.2713C68.2086 55.371 67.5321 55.2423 66.8718 55.1217C64.5364 54.6796 62.1526 54.5349 59.777 54.3822C55.8873 54.133 52.0942 53.2166 48.2287 52.7503C48.0355 52.7342 47.8502 52.694 47.6731 52.678C47.4879 52.6539 47.3026 52.6378 47.1255 52.6378C46.4812 52.6378 45.9819 52.8629 45.9416 53.8114C45.9255 54.133 45.8128 54.4626 45.4262 54.5349C45.386 54.543 45.3538 54.543 45.3135 54.543C44.9833 54.543 44.8223 54.2616 44.7095 54.0044C43.727 51.6329 42.0922 49.7358 40.3769 47.8788C39.7005 47.1553 39.4105 46.3193 39.789 45.3466C39.9501 44.9206 40.0226 44.4624 40.0226 44.0042C40.0387 42.8868 40.6266 42.1954 41.6252 41.8417C43.4291 41.2067 44.7981 40.1054 45.7403 38.4092C46.0947 37.7741 46.4973 37.4686 46.9644 37.4686C47.3429 37.4686 47.7536 37.6696 48.2207 38.0555C48.7925 38.5298 49.2515 39.1005 49.8233 39.5587C50.4997 40.0812 51.2084 40.3385 51.8607 40.3385C52.9801 40.3385 53.9465 39.5828 54.3491 38.16C54.7196 36.8657 54.937 35.4911 54.7196 34.1084C54.6874 33.8994 54.6471 33.6663 54.631 33.4332C54.3411 29.9846 54.8082 29.2771 58.0536 28.0874C58.2871 28.007 58.5287 27.9508 58.7623 27.9508C58.9797 27.9508 59.1891 28.007 59.3743 28.1437C61.6211 29.864 64.3109 29.9283 66.9442 30.2177C68.724 30.4106 68.7965 30.5151 68.8126 32.356C68.8287 34.5827 68.8126 36.8336 68.8126 39.0603C68.7965 39.9607 68.9012 40.8288 69.8434 41.2549C70.1252 41.3835 70.4071 41.4398 70.6729 41.4398C71.2607 41.4398 71.8084 41.1665 72.2835 40.7806C73.4592 39.824 74.5786 38.8192 75.7947 37.9108C76.3181 37.533 76.8255 37.3079 77.357 37.3079C77.7113 37.3079 78.0818 37.4043 78.4683 37.6294C79.2897 38.0876 80.1595 38.3368 81.0695 38.4976C81.8909 38.6423 82.2613 39.1729 82.052 39.9848C81.5849 41.7372 81.7137 43.4334 82.1969 45.1376C82.5029 46.255 82.0358 46.8901 81.0534 47.3C77.5583 48.7711 74.8847 51.1908 72.7345 54.2375C71.7359 55.6684 70.8661 57.1957 70.2702 58.8196C69.2877 61.5286 68.0395 64.1493 67.6529 67.0271C67.4919 67.7667 67.2583 68.4982 67.1697 69.5594C67.3147 68.9243 67.2744 68.5143 67.5482 68.2169C67.6127 68.1445 67.6771 68.0883 67.7496 68.0481C67.7737 67.9838 67.7898 67.9195 67.814 67.8471C67.7657 67.5256 67.8543 67.3648 68.0153 67.2844C68.3213 66.4323 68.6837 65.4757 68.8287 65.0979C69.5052 63.3132 70.8742 62.6541 72.6217 62.5174C72.9036 62.4933 73.1854 62.4853 73.4673 62.4853C73.6767 62.4853 73.8941 62.4933 74.1115 62.5094C74.3209 62.4209 74.5384 62.3566 74.7719 62.3566C74.8524 62.3566 74.933 62.3647 75.0135 62.3807C75.0457 62.4049 75.086 62.4129 75.1262 62.4129C75.1987 62.4129 75.2793 62.3807 75.3678 62.3566C75.4484 62.3245 75.537 62.3004 75.6094 62.3004C75.6739 62.3004 75.7302 62.3245 75.7705 62.3888C75.7947 62.3807 75.8188 62.3727 75.843 62.3647C76.6805 62.2361 77.51 62.1798 78.3395 62.1798C79.0964 62.1798 79.8615 62.228 80.6185 62.3164C80.6265 62.019 80.6024 61.9547 80.6265 61.9547C80.6427 61.9547 80.699 62.0029 80.8279 62.011C80.9648 61.9708 81.1097 61.9467 81.2547 61.9467C81.4963 61.9467 81.7379 61.9949 81.9875 62.0833C83.3002 61.5367 84.4276 60.773 85.5792 59.9852C85.539 59.8968 85.5068 59.8003 85.4826 59.6878C85.5873 59.5672 85.7161 59.4386 85.8208 59.318H85.8289C86.1349 58.3453 86.9724 57.9032 87.8019 57.5012C88.0757 57.3726 88.2529 57.2922 88.3898 57.2922C88.5992 57.2922 88.7119 57.4851 88.9374 57.9675C88.9454 57.9675 88.9535 57.9594 88.9615 57.9594C88.9857 57.7585 89.034 57.5655 89.0984 57.3565C89.3481 56.9305 89.7588 56.8822 90.1695 56.8822C94.3813 56.8501 97.6751 55.2343 99.7769 51.5043C99.8575 51.44 99.938 51.3918 100.027 51.3757C100.115 51.1345 100.196 50.7487 100.26 50.5316C101.13 47.9994 100.759 45.4672 100.316 42.9591C99.64 39.1005 98.3354 35.6117 94.5263 33.7065C94.0995 33.4975 94.0431 33.2644 94.2766 32.8544C94.7598 32.0184 95.0578 31.1019 95.2752 30.1614C95.9517 27.1388 94.7759 24.478 92.0862 22.9426C91.603 22.6773 91.1037 22.3397 90.5883 22.2674C88.6797 22.0021 88.269 20.957 88.1643 19.1162C87.8824 14.0035 85.4021 10.2173 80.4816 8.26384C79.1287 7.72524 77.7033 7.468 76.2778 7.468C75.698 7.468 75.1182 7.5082 74.5303 7.58859C74.2968 7.62074 74.0713 7.63682 73.8619 7.63682C72.7989 7.63682 72.0741 7.20273 71.3574 6.15769C69.2555 3.02257 66.2597 1.12543 62.5231 0.361744C61.2829 0.112543 60.0427 0 58.8025 0Z" fill="#223E21"/>
<path d="M88.4066 57.2842C88.2697 57.2842 88.0925 57.3646 87.8187 57.4932C86.9893 57.8951 86.1598 58.3373 85.8457 59.3099C86.0068 59.2215 86.1759 59.1813 86.3369 59.1813C86.4658 59.1813 86.5866 59.2054 86.6993 59.2376C87.408 58.7794 88.1409 58.3373 88.9542 57.9594C88.7287 57.4771 88.616 57.2842 88.4066 57.2842Z" fill="#223E21"/>
<path d="M43.1968 64.929C43.1887 65.1139 43.2451 65.2746 43.3579 65.4354C43.4223 65.8615 43.4142 66.7216 43.3901 67.5818C43.4303 67.5818 43.4706 67.5818 43.5189 67.5898C43.9055 66.9387 43.8169 66.2634 43.6478 65.564C43.5592 65.355 43.4545 65.1541 43.2773 64.9933C43.2532 64.9772 43.221 64.9531 43.1968 64.929ZM78.3568 62.1797C77.5274 62.1797 76.6898 62.236 75.8604 62.3646C75.8362 62.3727 75.812 62.3807 75.7879 62.3887C75.8201 62.445 75.8442 62.5334 75.8604 62.6701C75.8362 62.6781 75.8201 62.6862 75.7959 62.6942C76.5851 62.8148 77.3099 62.8791 77.9864 62.8791C79.0011 62.8791 79.903 62.7505 80.7245 62.5334C80.6922 62.5254 80.66 62.5093 80.6359 62.5013C80.6359 62.437 80.6439 62.3807 80.6439 62.3244C79.8789 62.228 79.1138 62.1797 78.3568 62.1797ZM30.3037 52.3644C30.3842 52.6136 30.4567 52.8467 30.5292 53.0879C31.1573 55.1056 32.1318 56.9465 33.5411 58.5542C33.686 58.715 33.7424 58.9642 33.8229 59.1571C33.8954 59.2536 33.9035 59.3581 33.9035 59.4707C33.9518 59.3662 34.0001 59.2456 34.0404 59.125C34.0243 58.6989 33.7907 58.3452 33.5411 58.0237C32.4378 56.6571 31.6325 55.1217 31.0446 53.4737C30.8755 52.9673 30.6258 52.6056 30.3037 52.3644ZM100.044 51.3676C99.9634 51.3837 99.8829 51.4319 99.7943 51.4962C97.6924 55.2262 94.3906 56.842 90.1869 56.8741C89.7762 56.8741 89.3655 56.9304 89.1158 57.3484C89.0514 57.5494 89.0031 57.7504 88.9789 57.9513C89.0031 57.9353 89.0353 57.9272 89.0595 57.9111C89.0997 57.6298 89.0353 57.3082 89.3816 57.1716C89.3816 57.3725 89.3816 57.5655 89.3816 57.7664C90.5815 57.26 91.9425 56.8902 93.6014 56.7938C96.6697 56.6169 98.6105 54.157 99.9795 51.4882C100.004 51.456 100.02 51.4158 100.044 51.3676ZM58.7796 27.9587C58.5461 27.9587 58.3125 28.015 58.071 28.0954C54.8255 29.2771 54.3665 29.9925 54.6484 33.4412C54.6645 33.6743 54.6967 33.8994 54.737 34.1164C54.9544 35.4991 54.737 36.8737 54.3665 38.168C53.9639 39.5908 52.9975 40.3465 51.8781 40.3465C51.2258 40.3465 50.5252 40.0892 49.8406 39.5667C49.2689 39.1085 48.8098 38.5377 48.2381 38.0635C47.779 37.6776 47.3603 37.4766 46.9818 37.4766C46.5147 37.4766 46.112 37.7821 45.7577 38.4172C44.8155 40.1133 43.4384 41.2146 41.6425 41.8497C40.6439 42.2034 40.0561 42.8947 40.04 44.0121C40.04 44.4703 39.9675 44.9286 39.8064 45.3546C39.4279 46.3273 39.7178 47.1633 40.3943 47.8868C42.1016 49.7438 43.7444 51.6409 44.7269 54.0123C44.8396 54.2696 45.0007 54.5509 45.3309 54.5509C45.3631 54.5509 45.4034 54.5509 45.4436 54.5429C45.8382 54.4706 45.9429 54.1329 45.959 53.8194C45.9993 52.8708 46.4986 52.6458 47.1428 52.6458C47.32 52.6458 47.4972 52.6618 47.6905 52.686C47.8676 52.702 48.0448 52.7422 48.2461 52.7583C52.1116 53.2165 55.9127 54.141 59.7943 54.3902C62.162 54.5509 64.5537 54.6876 66.8891 55.1297C67.5495 55.2503 68.226 55.3789 68.081 56.2793C67.7589 58.1684 67.3884 60.0494 66.4623 61.7617C66.2288 62.1878 65.9308 62.5254 65.4154 62.5415C64.7551 62.5656 64.0867 62.5977 63.4263 62.5977C62.315 62.5977 61.2036 62.5013 60.1245 62.1154C59.448 61.8662 59.0534 61.4964 58.9326 60.7729C58.7716 59.7842 58.5783 58.7954 58.2884 57.8388C58.0548 57.043 57.7488 56.1748 56.8066 56.0542C56.7502 56.0462 56.7019 56.0462 56.6455 56.0462C55.8966 56.0462 55.5423 56.7455 55.1477 57.3163C54.9866 57.5494 54.8658 57.7906 54.737 58.0237C54.294 58.8195 54.1169 59.7359 53.5773 60.4835C53.2552 61.0382 52.7398 61.207 52.1519 61.207C52.1197 61.207 52.0955 61.207 52.0633 61.207C50.4205 61.1508 48.7857 60.998 47.2314 60.3951C46.8529 60.2504 46.4825 60.0977 46.2489 59.7038C46.104 59.4385 45.9027 59.133 45.6047 59.133C45.5483 59.133 45.4839 59.1411 45.4114 59.1732C45.041 59.3179 45.041 59.7601 45.0007 60.1298C44.8719 62.0029 44.4128 63.8116 44.0746 65.6364C43.9296 66.4644 43.8008 67.2924 43.7686 68.04C43.8169 68.0721 43.833 68.0962 43.7686 68.1204C43.7525 68.5062 43.7686 68.868 43.8169 69.1976C43.7122 68.659 43.6397 68.3535 43.4706 68.1686C43.4464 68.1686 43.4223 68.1686 43.3981 68.1686C43.382 68.5786 43.374 68.9725 43.3579 69.2779C43.3418 69.913 43.4142 70.4436 44.284 70.7812C43.5672 66.802 45.2826 63.1926 45.5483 59.3099C45.7819 60.0173 46.1926 60.4594 46.8127 60.6926C48.5119 61.3196 50.2755 61.5607 52.0714 61.5607C52.2002 61.5607 52.321 61.5607 52.4499 61.5607C53.3277 61.5447 54.5678 59.0446 54.89 58.289C55.2443 57.7584 55.5503 57.1716 55.961 56.6973C56.2107 56.4079 56.4442 56.2632 56.6617 56.2632C56.9113 56.2632 57.1448 56.4481 57.3864 56.8018C57.6683 57.2278 57.8133 57.7021 57.926 58.2005C58.1193 59.0848 58.3689 59.9691 58.4656 60.8694C58.5541 61.8582 59.0695 62.2842 59.9796 62.5334C61.5499 62.9595 63.1364 63.0077 64.739 63.0318C65.8422 63.0318 66.5429 62.5736 66.9455 61.5607C67.6542 59.8083 68.0649 58.0076 68.387 56.1426C68.5642 55.1538 68.532 55.1137 67.4931 54.8725C65.9228 54.5027 64.3202 54.358 62.7337 54.2696C58.4253 54.0365 54.1974 53.3853 49.9534 52.6216C48.9709 52.4448 47.9562 52.3403 46.9576 52.3001C46.6838 52.292 46.4583 52.276 46.2731 52.276C45.6208 52.276 45.4919 52.4528 45.4919 53.5783C45.4919 53.8435 45.653 54.2294 45.1215 54.358C44.4772 52.4609 43.3901 50.8531 42.1096 49.3499C41.6103 48.763 41.0627 48.2003 40.5393 47.6135C39.9836 47.0106 39.6293 46.3755 40.04 45.5073C40.2574 45.0652 40.346 44.5507 40.2735 44.0362C40.1447 43.0475 40.6439 42.4928 41.554 42.2115C43.5833 41.5925 45.1215 40.4429 46.0073 38.4574C46.2489 37.9268 46.5227 37.6776 46.8449 37.6776C47.1267 37.6776 47.4489 37.8705 47.8274 38.2323C48.3991 38.7628 48.8743 39.3818 49.4621 39.8802C50.195 40.4831 50.9761 40.7725 51.717 40.7725C52.9653 40.7725 54.0847 39.9445 54.6001 38.4252C55.0269 37.1712 55.1557 35.8206 55.0269 34.5103C54.898 33.2402 54.9544 31.962 54.8658 30.6919C54.8336 30.1614 55.0108 29.8398 55.5262 29.6871C56.3476 29.4218 57.169 29.0842 57.8455 28.5375C58.1112 28.3205 58.3528 28.216 58.5783 28.216C58.8441 28.216 59.1098 28.3526 59.3997 28.6018C60.5755 29.6067 62.017 30.089 63.531 30.298C63.8209 30.3463 64.1189 30.3463 64.4088 30.3463C64.4329 30.3463 64.4571 30.3463 64.4813 30.3463C64.5054 30.3463 64.5376 30.3463 64.5618 30.3463C64.9 30.3463 65.2463 30.3543 65.5684 30.4186C65.7537 30.4588 65.9469 30.4668 66.1402 30.4668C66.2771 30.4668 66.4221 30.4588 66.559 30.4588C66.6959 30.4508 66.8408 30.4508 66.9777 30.4508C67.4045 30.4508 67.7992 30.507 68.081 30.7964C68.7253 31.4476 68.2985 32.5328 68.3146 33.4331C68.3307 35.5393 68.2662 37.6454 68.3146 39.7355C68.3548 41.086 69.2487 41.9221 70.3842 41.9221C70.7386 41.9221 71.1171 41.8417 71.5036 41.6648C72.0029 41.4317 72.47 41.1182 72.8404 40.7082C73.8712 39.5908 75.1919 38.8111 76.3677 37.8786C76.6415 37.6696 76.8912 37.549 77.1489 37.549C77.3663 37.549 77.5918 37.6294 77.8414 37.8062C78.679 38.393 79.6373 38.6905 80.66 38.8352C81.7472 38.9799 81.7794 38.9959 81.5137 40.1294C81.103 41.8658 81.2076 43.562 81.6908 45.2581C82.0291 46.4238 82.013 46.4398 80.8211 46.9543C76.6657 48.7228 73.6216 51.6972 71.3184 55.5397C69.5708 58.4819 68.7494 61.7697 67.5253 64.9209C67.2596 65.5962 66.261 69.3423 67.0422 70.5481C67.3643 70.3712 67.5253 69.093 67.5576 68.8117C67.5737 68.6831 67.6542 68.4098 67.7669 68.0561C67.6945 68.1043 67.622 68.1606 67.5656 68.2249C67.2999 68.5223 67.3321 68.9323 67.1871 69.5673C67.2757 68.5062 67.5092 67.7827 67.6703 67.0351C68.0649 64.1492 69.3131 61.5286 70.2876 58.8276C70.8755 57.1957 71.7532 55.6764 72.7518 54.2455C74.9101 51.1988 77.5837 48.7791 81.0707 47.308C82.0532 46.898 82.5122 46.263 82.2143 45.1456C81.7311 43.4494 81.6103 41.7452 82.0693 39.9928C82.2868 39.1808 81.9083 38.6503 81.0868 38.5056C80.1768 38.3448 79.3071 38.0956 78.4857 37.6374C78.0991 37.4204 77.7367 37.3159 77.3743 37.3159C76.8428 37.3159 76.3355 37.5409 75.812 37.9188C74.6041 38.8191 73.4766 39.832 72.3009 40.7886C71.8257 41.1745 71.2781 41.4478 70.6902 41.4478C70.4245 41.4478 70.1426 41.3915 69.8608 41.2629C68.9185 40.8368 68.8139 39.9686 68.83 39.0683C68.83 36.8416 68.8461 34.5907 68.83 32.364C68.8139 30.5231 68.7414 30.4186 66.9616 30.2257C64.3202 29.9443 61.6304 29.872 59.3917 28.1517C59.2064 28.015 58.9971 27.9587 58.7796 27.9587Z" fill="#223E21"/>
<path d="M30.1587 51.8899C30.199 52.0188 30.2394 52.1476 30.2797 52.2684C30.546 52.2684 30.7235 52.2684 30.8042 52.2684C30.8203 52.0993 30.5702 51.9785 30.1587 51.8899Z" fill="#223E21"/>
<path d="M43.397 67.5815C43.3889 67.7748 43.3889 67.9601 43.3809 68.1453C43.4051 68.1453 43.4293 68.1453 43.4535 68.1453C43.518 68.1453 43.5826 68.1373 43.6552 68.1292C43.6955 68.1212 43.7278 68.1051 43.752 68.097C43.8246 68.0729 43.8004 68.0487 43.752 68.0165C43.6713 67.952 43.518 67.8554 43.7036 67.5976C43.6471 67.5976 43.5826 67.5896 43.5261 67.5896C43.4777 67.5896 43.4373 67.5815 43.397 67.5815Z" fill="#223E21"/>
<path d="M81.2697 61.9464C81.1248 61.9464 80.9798 61.9625 80.8429 62.0107C80.7141 62.0027 80.6658 61.9544 80.6416 61.9544C80.6174 61.9544 80.6416 62.0268 80.6335 62.3162C80.6335 62.3644 80.6335 62.4207 80.6255 62.493C80.6577 62.5011 80.6899 62.5172 80.7141 62.5252C81.165 62.4046 81.5838 62.2599 81.9945 62.0911C81.7529 61.9946 81.5113 61.9464 81.2697 61.9464ZM86.3352 59.1811C86.1661 59.1811 86.005 59.2213 85.8439 59.3097H85.8359C85.7312 59.4303 85.6023 59.5589 85.4976 59.6795C85.5218 59.792 85.554 59.8885 85.5943 59.9769C85.9567 59.7277 86.3271 59.4785 86.7056 59.2373C86.5848 59.2052 86.464 59.1811 86.3352 59.1811ZM89.3793 57.1714C89.0249 57.308 89.0974 57.6296 89.0571 57.911C89.1618 57.8627 89.2746 57.8145 89.3873 57.7663C89.3793 57.5733 89.3793 57.3724 89.3793 57.1714Z" fill="#223E21"/>
<path d="M68.0317 67.2841C67.8787 67.3644 67.7821 67.5172 67.8304 67.8468C67.8948 67.6699 67.9673 67.477 68.0317 67.2841ZM75.6258 62.292C75.5534 62.292 75.4728 62.3241 75.3842 62.3483C75.3037 62.3804 75.2151 62.4045 75.1426 62.4045C75.1024 62.4045 75.0621 62.3965 75.0299 62.3724C74.9494 62.3563 74.8608 62.3483 74.7883 62.3483C74.5548 62.3483 74.3373 62.4126 74.128 62.501C74.3132 62.5171 74.5064 62.5332 74.6917 62.5653C74.7722 62.5975 74.8608 62.6135 74.9494 62.6135C75.0218 62.6135 75.0943 62.6055 75.1749 62.5975C75.2473 62.5894 75.3198 62.5814 75.4003 62.5814C75.5211 62.5814 75.6339 62.5975 75.7466 62.6698C75.7627 62.6698 75.7788 62.6779 75.795 62.6779C75.8191 62.6698 75.8352 62.6618 75.8594 62.6537C75.8513 62.5171 75.8272 62.4286 75.7869 62.3724C75.7466 62.3161 75.6903 62.292 75.6258 62.292Z" fill="#223E21"/>
<path fill-rule="evenodd" clip-rule="evenodd" d="M52.4009 75.0662C52.1351 75.4922 51.9016 75.8942 51.9741 76.4086C51.7969 77.1884 51.4345 77.9842 52.2076 78.7238C52.2398 77.944 52.264 77.1804 52.2962 76.4086C52.562 75.9665 52.6828 75.5404 52.4009 75.0662Z" fill="#223E21"/>
<path fill-rule="evenodd" clip-rule="evenodd" d="M47.8196 87.0116C45.2909 89.1741 43.1166 91.5937 41.7797 94.6726C41.2241 95.9668 40.6603 97.253 40.0886 98.5473C39.7503 98.8849 39.5007 99.2707 39.2994 99.6968C38.8725 100.171 38.4055 100.613 37.9948 101.112C37.8498 101.288 37.8337 101.658 38.1719 101.538C38.8323 101.305 38.8323 101.803 38.937 102.141C39.3799 103.539 39.9034 104.938 40.9905 105.959C41.7556 106.666 42.0777 107.478 42.271 108.435C42.6817 110.38 43.487 112.149 44.9124 113.604C45.2345 113.925 45.5567 114.255 45.5567 114.769C45.7499 114.842 45.9674 114.826 46.1606 114.737C46.1445 114.279 46.0721 113.853 45.6775 113.515C43.8413 112.012 43.1488 109.874 42.6817 107.679C42.5045 106.867 42.1099 106.353 41.5945 105.75C40.2013 104.102 38.9048 102.366 39.5651 99.9942C39.8711 99.6566 40.153 99.2868 40.3463 98.8608C41.216 97.7595 41.667 96.4733 42.1663 95.1951C42.6817 93.8687 43.3582 92.6307 44.2198 91.4973C45.2667 90.1146 46.4828 88.8766 47.7874 87.7271C48.0692 87.4779 48.4961 87.3171 48.5363 86.8428C48.2303 86.6258 48.0129 86.8509 47.8196 87.0116Z" fill="#223E21"/>
<path fill-rule="evenodd" clip-rule="evenodd" d="M49.7286 98.6032C49.7125 97.1562 49.7125 95.6851 49.6963 94.2301C49.6963 94.1417 49.7125 94.0372 49.7125 93.9488C49.8574 93.0806 50.1071 92.2124 50.0346 91.312C50.3003 90.5323 50.55 89.7686 50.3567 88.9084C49.9299 89.3184 49.8171 89.849 49.7688 90.4117C49.5755 91.103 49.3581 91.7783 49.4145 92.5178C49.1085 92.96 49.1648 93.4745 49.2051 93.9648C49.0601 94.7446 49.044 95.5243 49.1326 96.3202C48.9232 96.6739 48.9232 97.0276 49.1326 97.3813C49.0601 99.3428 49.5433 100.918 50.5258 101.561C50.244 100.46 49.9943 99.5437 49.7286 98.6032Z" fill="#223E21"/>
<path fill-rule="evenodd" clip-rule="evenodd" d="M115.232 67.0513C113.074 63.6188 110.433 60.556 107.517 57.7263C106.712 56.6974 105.786 55.797 104.771 54.9851L101.26 51.6732C101.115 51.4079 100.479 50.805 100.173 50.7166C99.9395 50.7728 100.125 51.215 100.068 51.4963C100.334 51.6571 100.608 51.8179 100.874 51.9947L100.89 52.0108C100.978 52.0992 101.067 52.1716 101.156 52.26L101.172 52.2761C101.26 52.3645 101.349 52.4529 101.437 52.5253L101.453 52.5414C101.526 52.6298 101.615 52.7021 101.703 52.7745C101.703 52.7745 101.88 52.9674 101.969 53.0237C103.7 54.7038 105.448 56.3839 107.171 58.064C107.405 58.3453 107.638 58.6267 107.88 58.9C110.054 61.2393 112.156 63.6589 113.992 66.2796C115.418 68.2973 116.255 70.508 116.344 73.0241C116.392 74.5836 115.844 79.3426 114.258 84.2462C111.963 84.9054 106.221 87.9279 104.063 88.3379C103.418 88.4585 102.919 88.8122 102.444 89.2785C100.519 91.1033 98.5785 92.8718 96.6296 94.6725C96.235 94.9538 95.9693 95.0824 95.2606 95.2915C94.8821 95.3075 94.1412 95.412 92.6031 95.2915C92.4581 95.2754 90.5334 95.0101 90.5334 95.0101C90.2677 94.7609 85.9029 92.9602 85.2264 93.2014C85.4599 93.539 87.6826 94.3348 88.6812 94.6885C89.0919 94.8493 89.6637 95.1307 90.0019 95.6291L89.9858 95.8381C89.5429 97.7995 88.5443 99.4636 87.2075 100.935C85.7821 102.51 84.1634 103.837 82.3273 104.882C80.6683 105.838 78.9611 106.706 77.286 107.639C76.3196 108.17 75.3774 108.732 74.4352 109.287C74.2258 109.408 74.0969 109.608 74.3063 109.834C74.4513 109.994 74.6446 110.01 74.8056 109.89C74.9828 109.769 75.1439 109.584 75.321 109.448C75.7317 109.078 76.1908 108.885 76.7786 108.797C76.5129 110.139 75.619 110.975 74.9989 111.98C74.0728 112.776 73.2514 113.716 72.2367 114.408C72.0273 114.552 71.9709 114.761 71.9146 114.978C72.1642 114.962 72.4299 114.946 72.6796 114.946C73.5896 114.11 74.6365 113.403 75.3371 112.326C76.2955 111.385 77.0686 110.292 77.3665 108.998C77.5276 108.346 77.8497 108.009 78.3973 107.703C80.2173 106.763 82.0535 105.846 83.7607 104.697C85.8465 103.266 87.7148 101.618 89.0919 99.4796C89.7845 98.4024 90.4126 97.3011 90.4287 95.9587C90.4609 95.8381 90.5334 95.7255 90.5898 95.621C91.983 95.7657 93.352 95.9747 94.7452 95.83C95.5264 95.7577 96.5652 95.4442 97.2417 94.8413C99.2067 93.2978 100.946 91.5293 102.75 89.8331C103.072 89.5357 103.354 89.174 103.837 89.0534C105.102 88.7318 106.366 88.3781 107.638 88.0485C108.564 87.4295 113.557 85.2912 114.516 84.8652C114.427 84.9215 114.516 84.8652 114.516 84.8652C114.886 84.3186 116.601 77.4293 116.69 76.8264C117.294 73.4019 117.117 70.0578 115.232 67.0513Z" fill="#223E21"/>
<path fill-rule="evenodd" clip-rule="evenodd" d="M34.3472 69.4957C34.4924 69.3024 34.7022 69.2622 34.9201 69.2863C34.7587 69.4233 34.5812 69.5118 34.3472 69.4957Z" fill="#282718"/>
<path fill-rule="evenodd" clip-rule="evenodd" d="M19.2859 64.9048C19.3261 63.8437 19.2698 62.9755 19.3422 62.1234C19.5033 61.3597 19.5194 60.4754 20.6791 60.5639C20.9851 60.5639 21.283 60.5639 21.5649 60.5317C21.2991 61.7858 21.9434 62.9192 23.0467 63.1684C21.6857 63.3131 20.4375 63.8678 19.2859 64.9048ZM43.4534 64.5189C42.938 63.9562 42.2615 63.6186 41.585 63.3131C41.3515 63.1925 41.126 63.1202 40.8763 63.0478C40.3046 62.7263 39.6603 62.6057 39.0402 62.4289C38.847 62.3726 38.6456 62.2842 38.4362 62.2842C37.5826 62.1234 36.729 62.051 35.8673 62.051C33.8701 62.2279 32.2112 63.1684 30.7374 64.3903C29.916 65.0656 29.2959 65.0656 28.4181 64.5832C27.331 63.9803 26.2438 63.3613 24.9794 63.1845C26.2277 62.9192 27.4356 62.4449 28.7725 62.7102C29.1268 62.7826 29.5053 62.6218 29.8033 62.4047C30.7455 61.7295 31.8327 61.3758 32.9359 61.0623C33.4755 60.9015 34.1278 60.7246 34.0231 59.9127C34.0231 59.6314 34.1117 59.3259 33.8057 59.133C33.0245 60.2503 32.1709 60.5639 30.9871 60.2102C31.0435 59.8725 30.9871 59.5751 30.7696 59.3098C30.7535 59.149 30.7374 58.9883 30.7213 58.8355C30.6891 57.4529 30.367 56.1265 29.9724 54.5911C29.6664 55.5638 29.8838 57.2599 30.4314 59.4224C30.4153 59.5108 30.4314 59.5831 30.4636 59.6555C30.4636 60.0253 30.4636 60.379 30.4797 60.7487C29.9965 61.1748 29.4973 61.5607 28.8933 61.7536C28.1765 61.9626 27.6772 61.6973 27.7014 60.9738C27.7175 59.8082 27.3954 58.6587 27.3954 57.5091C27.3954 56.9786 27.6289 56.3917 27.041 55.9657C26.9364 57.0429 26.7028 58.1281 27.1296 59.2053C27.1296 59.3822 27.1135 59.5751 27.1135 59.7519C27.1135 61.6973 27.1135 61.6973 25.1888 62.1957C24.7056 62.3163 24.2063 62.4449 23.707 62.4047C22.8856 62.3324 22.4588 61.9787 22.2816 61.1828C22.2092 60.8854 22.2253 60.5478 22.2092 60.2262C22.5313 59.768 23.2963 60.2101 23.7231 59.3902C22.1206 59.567 20.6952 59.7439 19.2698 59.6394C19.1812 59.6233 19.1087 59.6072 19.0201 59.5831C18.9315 59.5671 18.859 59.5269 18.7866 59.5269C17.8766 59.3179 16.9827 58.9802 16.1612 58.0799C16.5558 59.4625 16.8055 59.6233 18.392 59.9208C19.0362 60.0815 18.7866 60.4674 18.6738 60.8613C17.9088 63.5864 18.1182 66.3116 18.9074 69.0045C18.9074 69.1814 18.9235 69.3743 18.9235 69.5512C18.9074 69.9772 18.8349 70.4033 19.1409 70.7731C19.157 72.5416 19.2859 74.3101 18.8752 76.0626C18.4161 77.5819 17.5947 78.9324 16.733 80.2588C16.0565 80.9823 15.3962 81.7138 14.7197 82.4373C14.7922 82.5097 14.8647 82.582 14.9533 82.6302C15.9196 82.2203 16.4109 81.3199 16.9988 80.5402C18.102 79.3745 18.8671 78.008 19.1892 76.4163C19.906 74.3423 19.8657 72.2361 19.4389 70.13C19.4952 69.8084 19.4711 69.4949 19.2456 69.2296L19.1892 69.0206C19.157 68.6991 19.1892 68.3695 19.1006 68.0801C18.7624 67.0753 19.1328 66.3437 19.8979 65.6765C21.7662 64.0125 23.852 63.7311 26.1552 64.527C27.6531 65.0414 28.8852 65.9981 30.1657 66.8662C30.4878 67.1878 30.7938 67.5174 31.1079 67.8389C31.2126 67.9274 31.3575 67.9434 31.4622 67.8389C31.5669 67.7344 31.583 67.5897 31.4783 67.4691C31.1723 67.1315 30.8743 66.7939 30.4475 66.601C30.1979 66.3035 30.2542 66.0382 30.5361 65.773C33.4916 62.9594 37.4135 61.9304 41.2146 64.0768C41.9635 64.5028 42.6561 65.0334 43.3728 65.5077C43.3889 65.3148 43.3889 65.1218 43.405 64.9209C43.5258 64.7521 43.5258 64.6395 43.4534 64.5189Z" fill="#223E21"/>
<path fill-rule="evenodd" clip-rule="evenodd" d="M35.9664 68.4983C35.8212 68.6916 35.6114 68.7077 35.3936 68.6916C35.5549 68.5547 35.7566 68.4822 35.9664 68.4983Z" fill="#282718"/>
<path fill-rule="evenodd" clip-rule="evenodd" d="M34.0396 69.0691C33.9347 69.1255 33.8217 69.1738 33.7007 69.2463C33.8298 69.1738 33.9347 69.1174 34.0396 69.0691Z" fill="#282718"/>
<path fill-rule="evenodd" clip-rule="evenodd" d="M35.167 69.2302C35.2557 69.0852 35.401 69.0369 35.5624 69.0369C35.4333 69.0852 35.3042 69.1577 35.167 69.2302Z" fill="#282718"/>
<path fill-rule="evenodd" clip-rule="evenodd" d="M33.5101 69.2944C33.5101 69.383 33.5101 69.4555 33.5101 69.5441C33.381 69.528 33.26 69.5119 33.1309 69.4877C33.26 69.4233 33.381 69.3508 33.5101 69.2944Z" fill="#282718"/>
<path fill-rule="evenodd" clip-rule="evenodd" d="M33.5088 69.5432C33.6379 69.5593 33.7751 69.5754 33.9042 69.5996C33.7751 69.6721 33.6379 69.7204 33.5088 69.7929C33.5088 69.7043 33.5088 69.6157 33.5088 69.5432Z" fill="#282718"/>
<path fill-rule="evenodd" clip-rule="evenodd" d="M34.8642 68.8198C34.7593 68.8762 34.6706 68.9245 34.5576 68.9648C34.6464 68.9245 34.7593 68.8762 34.8642 68.8198Z" fill="#282718"/>
<path fill-rule="evenodd" clip-rule="evenodd" d="M90.0274 95.6128L90.0112 95.8222L90.0274 95.6128Z" fill="#223E21"/>
<path fill-rule="evenodd" clip-rule="evenodd" d="M42.0295 11.7123C42.5288 12.1383 42.263 12.7011 42.2791 13.1995C42.3114 13.6979 42.2791 14.1721 42.8106 14.4374C44.075 13.1834 44.5421 11.447 45.3796 9.94376C48.0532 5.09639 52.1523 2.5481 57.6929 2.2989C59.07 2.24263 60.439 2.31498 61.7919 2.5481C68.4197 3.64941 72.0919 7.57233 72.6073 14.2445C72.6637 15.0243 72.7522 15.804 72.9133 16.5436C73.0905 17.3716 73.4851 17.46 74.1052 16.8651C74.5159 16.4552 74.6931 15.9648 74.7816 15.394C74.9991 14.0274 74.9588 12.6689 74.8139 11.3023C74.6528 9.88749 75.1924 9.31674 76.5936 9.47751C79.533 9.81514 82.1342 10.9486 84.3085 13.0146C86.66 15.2413 86.5151 18.0549 86.2654 20.9247C86.1446 22.3234 85.4843 23.6498 85.6776 25.1049C86.354 25.7962 86.7084 25.1611 87.103 24.7511C88.6894 23.1434 89.833 23.0871 91.5402 24.5904C94.4796 27.1547 94.7857 29.6146 92.5872 32.8703C91.8543 33.9716 91.0007 34.9604 90.1954 36.0215C89.8732 36.4475 89.3095 36.8897 89.7685 37.4363C90.3564 38.1276 90.7832 37.3318 91.2664 37.0987C91.355 37.0665 91.4114 36.9942 91.4839 36.9379C91.5724 36.8495 91.661 36.761 91.7496 36.6726C93.1267 35.9491 94.3749 36.2144 95.438 37.6132C97.5076 40.282 98.6431 43.3448 98.9813 46.6889C99.1102 47.9992 99.2632 49.3095 99.1424 50.6199C97.7009 53.6666 95.2044 55.2904 91.9993 56.038C91.0007 56.2711 89.986 56.1586 88.9874 56.1264C87.3123 56.0541 86.1205 56.7776 85.1541 58.0879C83.7448 59.9609 81.8362 60.9738 79.5249 61.4159C78.3653 61.649 77.262 61.5043 76.1346 61.3596C75.9574 61.3436 75.7561 61.3436 75.6675 61.1265C75.5789 60.9175 75.7078 60.7567 75.8447 60.6683C78.5908 58.8274 79.3397 55.8692 80.1611 52.9913C80.9101 50.3707 82.6335 48.9237 85.3313 49.0603C86.7003 49.1327 88.021 48.8111 89.535 48.6504C89.1565 48.0796 88.625 48.0314 88.2304 47.8545C85.9111 46.7773 84.5018 45.0249 83.9381 42.5248C83.5435 40.8608 84.0589 39.3736 84.7192 37.9026C84.8078 37.6935 84.9528 37.5167 85.0575 37.3157L85.0252 37.1951C84.9206 37.0183 84.7192 36.9861 84.5421 37.0183C82.4402 37.3881 80.5638 36.7691 78.8726 35.6035C77.6083 34.7192 76.6822 33.5697 77.0929 31.8172C77.254 31.142 76.8271 30.5069 76.0218 30.2738C74.5078 29.8477 73.6864 28.9474 73.5576 27.3879C73.5092 26.7528 73.0985 26.8251 72.6717 27.0342C71.5282 27.621 70.3927 28.1355 69.072 28.3123C65.7782 28.7384 62.8308 28.047 60.286 25.8364C59.7706 25.3942 59.4162 24.5421 58.772 24.5582C58.1519 24.5582 57.9908 25.4827 57.5962 25.957C55.8487 28.031 53.6904 28.6821 51.0893 27.9747C49.5914 27.5647 49.5753 27.6049 49.8572 29.1805C50.139 30.7561 48.8263 32.0503 47.0949 31.8896C46.4024 31.8172 45.7903 31.5037 45.1702 31.2143C44.6146 30.9651 44.3649 31.142 44.4938 31.7449C45.4199 35.8527 41.5544 39.8881 37.4392 40.0248C37.0768 40.0409 36.7064 39.9524 36.3198 40.2016C36.3681 40.7483 36.803 41.1422 37.0688 41.5602C38.5666 43.9316 37.9063 46.3915 35.4259 47.6696C34.983 47.9028 34.4998 48.0394 34.1294 48.4092C34.3065 48.9237 34.7333 48.779 35.0394 48.7468C36.6983 48.5861 37.5922 49.4703 38.1559 50.8691C38.9774 52.9431 39.7424 55.0492 41.0953 56.866C41.5544 57.485 42.0214 58.1039 42.5046 58.7069C42.859 59.1329 42.7704 59.4464 42.3114 59.6956C41.3289 60.194 40.3544 60.6683 39.372 61.1667C38.6391 61.5365 38.0351 61.1667 37.4473 60.813C36.1668 60.0493 35.1843 58.9561 34.234 57.8387C32.6154 55.9415 31.3832 53.8354 30.8839 51.3433C30.7068 50.443 30.8115 50.3144 31.7537 50.5073C32.2208 50.5957 32.9294 50.9334 33.0583 50.3305C33.2194 49.607 32.414 49.6552 31.8986 49.5507C29.3297 49.0041 27.1231 47.7983 25.1582 46.0619C24.7152 45.676 24.3367 45.1937 24.1112 44.6471C19.835 36.9459 20.7933 28.031 28.4197 22.5968C30.4491 21.1417 32.7362 20.6514 35.2085 21.0935C35.442 21.1257 35.6514 21.198 35.8849 21.2141C36.5775 21.2704 37.4392 21.407 37.5278 20.4745C37.6003 19.4697 36.8513 19.2205 35.9574 19.3571C35.2085 19.1481 34.4434 19.0758 33.6784 19.0919C33.324 19.0919 32.9294 19.1964 32.6798 18.8266C33.8717 17.9745 34.3871 16.6159 35.281 15.5387C36.4889 14.0837 37.8982 13.0628 39.7505 12.6367C40.5638 12.4519 41.4255 12.3313 42.0295 11.7123Z" fill="#378840"/>
<path fill-rule="evenodd" clip-rule="evenodd" d="M85.4857 25.3946C85.0186 24.9364 85.1636 24.3657 85.3247 23.8512C85.8964 21.8174 86.0333 19.7434 86.0736 17.6372C86.13 15.5873 85.0428 14.1725 83.7382 12.8944C81.886 11.1098 79.5103 10.2576 76.9977 9.79944C76.7642 9.76728 76.5387 9.74316 76.3212 9.74316C75.1616 9.72709 75.0005 9.97629 75.1777 11.1419C75.4273 12.7175 75.4434 14.3092 75.0327 15.8848C74.8556 16.5922 74.4771 17.1388 73.9053 17.5488C73.0839 18.1517 72.6973 17.9347 72.5524 16.962C72.3591 15.5632 72.198 14.1645 72.0531 12.7818C71.5135 7.78171 68.0909 4.36524 63.404 3.19962C60.2955 2.41986 57.1789 2.29928 54.0623 3.18354C52.1054 3.73017 50.4062 4.74306 48.8439 6.06945C46.6132 7.94248 45.4777 10.4586 44.318 12.9908C43.9959 13.6982 43.6899 14.3011 42.8363 14.4056C42.7074 10.4023 44.5999 7.4682 47.6682 5.09676C49.8586 3.40059 52.194 2.00184 54.9401 1.41501C60.2472 0.281548 65.0307 1.38286 69.162 4.90383C71.3202 6.74471 72.4396 9.23672 73.1241 11.9619C73.3738 12.9908 73.4463 14.0359 73.4463 15.0729C73.4463 15.5471 73.3979 16.0616 73.9133 16.4716C74.3563 16.1018 74.4449 15.6195 74.5012 15.1131C74.6623 13.2561 74.4126 11.4635 73.5912 9.78336C73.4865 9.57435 73.3738 9.37338 73.2852 9.16437C73.108 8.7544 73.1644 8.44089 73.6637 8.35246C74.1066 8.26403 74.5737 8.11934 75.0166 8.14345C80.3961 8.24796 84.9623 10.6033 86.887 16.4957C87.5795 18.618 87.346 20.8286 86.7259 22.975C86.5326 23.6663 86.3152 24.3737 86.0978 25.065C86.0897 25.6036 85.8401 25.5634 85.4857 25.3946Z" fill="#5EA245"/>
<path fill-rule="evenodd" clip-rule="evenodd" d="M36.0049 19.3413C36.8424 19.076 37.6074 19.285 37.8571 19.8397C38.0906 20.3703 37.8249 21.0616 37.2853 21.5198C36.9471 21.8173 36.6249 21.6806 36.2706 21.6082C34.4184 21.1822 32.5823 21.1098 30.7623 21.7851C28.9825 22.4604 27.5329 23.5938 26.2686 24.9926C25.2861 26.0698 24.3278 27.155 23.6674 28.4814C22.3628 31.1342 21.7991 33.8754 22.1373 36.8899C22.4434 39.599 23.3292 42.091 24.1667 44.6232C22.242 42.9592 21.3884 40.7083 20.9052 38.3047C20.0838 34.2854 20.8005 30.4991 22.8299 26.9781C24.6096 23.9154 27.1061 21.6726 30.5448 20.5552C32.236 20.0085 33.9674 20.0246 35.6747 20.3944C36.029 20.4667 36.3914 20.5713 36.7457 20.6597C36.9793 20.7159 37.2128 20.6918 37.3175 20.4266C37.4061 20.1774 37.3175 19.9683 37.1242 19.8236C36.786 19.5825 36.4156 19.4297 36.0049 19.3413Z" fill="#5DA246"/>
<path fill-rule="evenodd" clip-rule="evenodd" d="M99.1902 50.5716C98.7955 49.5989 98.7794 48.5377 98.7311 47.549C98.554 44.2049 97.499 41.1984 95.6629 38.4009C94.7126 36.9539 93.561 36.2224 91.7974 36.6484C91.8859 36.4877 91.9423 36.3108 92.047 36.1741C93.706 34.0117 93.1503 33.8751 95.4374 35.8044C97.7728 37.7819 98.6828 40.5633 99.2707 43.4653C99.5364 44.8078 99.5525 46.1744 99.6653 47.5329C99.7378 48.5217 99.5767 49.5989 99.1902 50.5716Z" fill="#5DA146"/>
<path fill-rule="evenodd" clip-rule="evenodd" d="M85.4834 25.394C85.733 25.394 85.9424 25.3216 86.0552 25.0724C86.8927 25.0563 87.1585 24.4213 87.4323 23.7782C87.9477 22.5563 88.447 22.3071 89.6388 22.8216C91.0803 23.4405 92.3849 24.2525 93.4157 25.4422C94.4466 26.6239 94.7365 27.9905 94.3982 29.5098C93.915 31.5597 92.7715 33.2398 91.5071 34.8556C91.0642 35.4183 90.581 35.973 90.114 36.5196C89.9529 36.7125 89.8804 36.9296 90.0415 37.1386C90.2186 37.3717 90.4361 37.2994 90.6455 37.1949C90.9273 37.0502 91.2011 36.8572 91.5394 36.8733C91.3944 37.227 91.1287 37.4762 90.8468 37.7013C90.4522 38.0389 90.0093 38.1113 89.5986 37.7576C89.2201 37.436 89.2925 37.018 89.4697 36.6241C89.824 35.8845 90.4119 35.2977 90.8951 34.6385C91.5394 33.7543 92.2883 32.9584 92.8359 32.0179C94.205 29.7349 94.1566 27.5966 92.0467 25.4663C91.6038 25.0242 91.1931 24.5258 90.6213 24.2123C89.2281 23.4486 88.4147 23.5611 87.3598 24.7428C87.2148 24.9197 87.1101 25.1528 86.933 25.2734C86.4981 25.619 85.9988 25.9004 85.4834 25.394Z" fill="#5B9E44"/>
<path fill-rule="evenodd" clip-rule="evenodd" d="M42.0303 11.7124C42.0303 12.0821 42.0303 12.4358 41.531 12.5243C41.0559 12.6127 40.5727 12.8619 40.0895 12.9101C37.8266 13.2317 36.3448 14.6465 35.0643 16.3588C34.6375 16.9456 34.1543 17.5244 33.8886 18.1836C33.6389 18.8186 33.2282 18.8186 32.7128 18.8025C32.584 17.862 33.2846 17.3154 33.7678 16.6803C35.161 14.8716 36.7233 13.2317 38.8654 12.2911C39.8721 11.8731 40.9029 11.5516 42.0303 11.7124Z" fill="#5DA145"/>
<path fill-rule="evenodd" clip-rule="evenodd" d="M90.4692 95.9511C90.5257 95.8464 90.5741 95.7175 90.6306 95.6128C90.5822 95.7175 90.5257 95.8464 90.4692 95.9511Z" fill="#223E21"/>
<path fill-rule="evenodd" clip-rule="evenodd" d="M36.6683 82.0919C35.2267 83.0646 33.6886 83.4344 32.0135 83.0967C31.6753 83.0244 31.2485 82.8877 31.1921 82.4617C31.1196 82.0195 31.4981 81.8105 31.8364 81.6819C33.4712 81.1031 35.114 80.9423 36.6683 82.0919Z" fill="#9AC340"/>
<path fill-rule="evenodd" clip-rule="evenodd" d="M77.8161 83.684C76.0847 84.094 74.5868 84.1985 73.097 83.7885C72.9198 83.7322 72.7185 83.7162 72.6863 83.4911C72.6299 83.2097 72.8634 83.1052 73.0809 83.0329C74.6432 82.5184 76.1008 82.8399 77.8161 83.684Z" fill="#9AC340"/>
<path fill-rule="evenodd" clip-rule="evenodd" d="M49.8739 45.5798C51.2671 45.5638 52.0322 46.3033 52.6361 47.2439C52.7247 47.3886 52.5637 47.7182 52.5073 47.9674C52.314 47.895 52.0483 47.8789 51.9194 47.7342C50.333 46.1024 49.4632 46.0541 47.7318 47.5413C47.16 48.0156 46.701 48.6185 46.1614 49.133C46.0165 49.2777 45.7507 49.3098 45.5574 49.3822C45.485 49.1732 45.2917 48.924 45.3481 48.7632C45.7346 47.5493 48.6579 45.5798 49.8739 45.5798Z" fill="#284323"/>
<path fill-rule="evenodd" clip-rule="evenodd" d="M60.5278 52.4528C62.4686 50.3628 64.6108 48.538 67.2119 47.2839C67.4455 47.1633 67.7837 47.2518 68.0817 47.2277C67.9528 47.4769 67.9045 47.8145 67.7032 47.9511C65.7221 49.4705 63.7249 50.9576 61.7278 52.4448C61.4217 52.6538 61.0513 52.7664 60.6969 52.903C60.6164 52.7664 60.5681 52.6056 60.5278 52.4528Z" fill="#284323"/>
<path fill-rule="evenodd" clip-rule="evenodd" d="M57.6764 68.2168C58.8199 67.831 59.8346 67.4371 60.8896 67.1396C61.8157 66.8744 62.0492 66.3599 61.7593 65.5078C60.044 65.3148 57.5556 66.8904 57.6764 68.2168ZM57.0724 68.0561C56.6456 68.2168 56.2349 68.3535 55.8241 68.4982C55.7678 68.3937 55.7195 68.2892 55.6631 68.1766C57.3059 67.1316 58.4414 65.4354 61.405 64.6235C62.476 63.5463 63.3619 62.6219 62.7579 65.5399C62.6693 65.966 63.378 67.3969 63.4505 67.8229C63.8934 69.9854 62.2908 71.9307 60.0843 71.8905C58.9971 71.8745 58.4253 71.1269 57.9824 70.315C57.62 69.6156 57.3945 68.8519 57.0724 68.0561Z" fill="#223E21"/>
<path fill-rule="evenodd" clip-rule="evenodd" d="M53.8608 63.281C54.2554 63.3694 54.489 63.3534 54.6259 63.4579C55.5681 64.1974 55.9788 64.2376 57.066 63.7231C57.211 63.6508 57.4203 63.7392 57.5975 63.7553C57.525 63.9161 57.4928 64.109 57.364 64.1974C56.2365 65.0897 54.8997 64.8003 53.8608 63.281Z" fill="#223E21"/>
<path fill-rule="evenodd" clip-rule="evenodd" d="M55.7358 61.2472C55.7921 60.7729 55.8244 60.3067 55.8968 59.8485C55.9129 59.744 56.0901 59.6555 56.2029 59.551C56.2914 59.6716 56.4525 59.8002 56.4525 59.9047C56.3639 60.8774 56.2592 61.834 56.1304 62.8067C56.1143 62.8951 55.921 62.9675 55.8083 63.0559C55.7358 62.9353 55.5908 62.8067 55.5908 62.6861C55.6069 62.1797 55.6794 61.7054 55.7358 61.2472Z" fill="#223E21"/>
<path fill-rule="evenodd" clip-rule="evenodd" d="M11.8383 56.2876C12.3215 55.6847 12.7242 55.0175 13.1188 54.3583C13.7953 53.2249 14.6731 52.3567 15.8649 51.9547C17.3064 48.5704 19.1264 45.3871 21.2847 42.4851C18.8285 37.6377 18.9171 31.6328 21.5021 26.8899C9.35798 37.3403 1.64307 52.8068 1.64307 70.058C1.64307 70.1786 1.64307 70.3072 1.64307 70.4278C2.30342 68.6753 3.10069 67.2605 3.88989 66.2717C6.52327 62.9276 9.1647 59.5996 11.8383 56.2876Z" fill="#020303"/>
<path fill-rule="evenodd" clip-rule="evenodd" d="M94.537 33.6903C98.3542 35.6036 99.6507 39.0843 100.327 42.9429C100.77 45.4751 101.149 48.0074 100.384 50.5315L100.351 50.6441C100.384 50.7164 100.424 50.7888 100.456 50.8772C100.778 51.0862 101.165 51.4801 101.277 51.6891L104.789 55.0011C105.787 55.8291 106.729 56.7133 107.535 57.7423C110.386 60.4835 112.955 63.4739 115.072 66.802C114.162 50.837 106.657 36.6245 95.2537 26.8413C95.5195 27.8703 95.5356 28.9796 95.2859 30.1533C95.0685 31.0938 94.7705 31.9942 94.2873 32.8463C94.0377 33.2482 94.1102 33.4572 94.537 33.6903Z" fill="#020303"/>
<path fill-rule="evenodd" clip-rule="evenodd" d="M103.862 89.0454C103.379 89.166 103.113 89.5197 102.775 89.8252C101.067 91.4571 99.3843 93.1131 97.5482 94.6002C92.1284 103.258 83.9464 109.978 74.2666 113.556L74.1941 113.612C69.185 115.308 63.8216 116.233 58.2408 116.233C54.1418 116.233 50.1474 115.734 46.3141 114.802L46.153 114.745L46.1369 114.761C42.054 113.732 38.1724 112.213 34.5323 110.268C34.4599 110.059 34.3874 109.826 34.3149 109.617C27.9851 105.726 22.662 100.364 18.8126 93.9893C15.4786 93.5632 12.3459 92.3092 9.42263 90.3397L9.29378 90.2834C8.24687 89.367 7.1758 88.4425 6.10473 87.5261C5.78261 86.6258 4.84039 86.1274 3.8418 85.8621C10.687 109.56 32.5352 126.94 58.3858 126.94C84.333 126.94 106.278 109.4 113.01 85.5486C111.158 86.3605 108.339 87.6226 107.663 88.0808C106.407 88.3782 105.142 88.7319 103.862 89.0454Z" fill="#020303"/>
<path fill-rule="evenodd" clip-rule="evenodd" d="M24.4185 112.269L24.6843 112.478C25.1997 112.888 25.4332 112.728 26.5043 111.361C27.5754 110.002 27.68 109.753 27.1646 109.343L26.8989 109.134L24.4185 112.269ZM26.2869 107.149L28.2116 108.652C29.7497 109.858 28.888 111.112 27.8331 112.422C26.8023 113.732 25.7876 114.866 24.2494 113.676L22.3247 112.173L26.2869 107.149Z" fill="#FEFEFE"/>
<path fill-rule="evenodd" clip-rule="evenodd" d="M30.3837 110.267L31.793 111.184L28.2335 116.497L26.8403 115.557L30.3837 110.267Z" fill="#FEFEFE"/>
<path fill-rule="evenodd" clip-rule="evenodd" d="M32.4215 111.61L35.7555 113.507L35.079 114.689L33.2026 113.628L32.6711 114.584L34.4187 115.573L33.7583 116.706L32.0108 115.718L31.3826 116.811L33.3315 117.912L32.647 119.094L29.2485 117.165L32.4215 111.61Z" fill="#FEFEFE"/>
<path fill-rule="evenodd" clip-rule="evenodd" d="M36.5379 115.453L35.3944 114.922L35.9903 113.644L39.8156 115.396L39.2277 116.674L38.068 116.16L36.0064 120.67L34.4683 119.962L36.5379 115.453Z" fill="#FEFEFE"/>
<path fill-rule="evenodd" clip-rule="evenodd" d="M39.9044 119.536L39.6387 115.348L41.3862 115.951L41.2493 118.266H41.2654L42.6022 116.393L44.3498 116.988L41.4909 120.107L40.6534 122.479L39.0669 121.908L39.9044 119.536Z" fill="#FEFEFE"/>
<path fill-rule="evenodd" clip-rule="evenodd" d="M47.9816 123.347C48.4809 123.435 48.6259 122.993 48.9641 121.313C49.2863 119.617 49.3265 119.15 48.8192 119.046C48.3199 118.958 48.1749 119.4 47.8367 121.08C47.4985 122.8 47.4824 123.258 47.9816 123.347ZM49.0366 117.945C50.7278 118.266 51.1224 119.287 50.6714 121.642C50.2124 123.982 49.4634 124.794 47.7723 124.456C46.0811 124.134 45.6865 123.114 46.1294 120.758C46.5723 118.427 47.3374 117.607 49.0366 117.945Z" fill="#FEFEFE"/>
<path fill-rule="evenodd" clip-rule="evenodd" d="M53.0461 123.894L53.3843 123.926C54.0286 123.982 54.1333 123.733 54.2943 121.997C54.4554 120.276 54.3829 119.995 53.7387 119.947L53.4004 119.914L53.0461 123.894ZM51.814 118.564L54.2541 118.773C56.1949 118.95 56.1627 120.469 56.0177 122.133C55.8728 123.797 55.6473 125.3 53.6984 125.124L51.2583 124.915L51.814 118.564Z" fill="#FEFEFE"/>
<path fill-rule="evenodd" clip-rule="evenodd" d="M61.4371 124.07L61.8962 124.038C62.2183 124.022 62.484 123.74 62.4518 123.21C62.4196 122.711 62.1297 122.47 61.8076 122.486L61.3485 122.519L61.4371 124.07ZM61.2761 121.401L61.6868 121.385C62.0411 121.369 62.2022 121.047 62.1861 120.71C62.17 120.356 61.9525 120.059 61.6143 120.091L61.2036 120.107L61.2761 121.401ZM59.4399 118.99L61.9928 118.829C63.1847 118.756 63.7967 119.343 63.8611 120.316C63.8933 120.991 63.6437 121.626 62.935 121.803V121.819C63.7725 121.835 64.1832 122.543 64.2155 123.202C64.2879 124.319 63.7886 125.115 62.3954 125.203L59.8426 125.364L59.4399 118.99Z" fill="#FEFEFE"/>
<path fill-rule="evenodd" clip-rule="evenodd" d="M66.6234 121.024L66.9616 120.967C67.4448 120.895 67.6058 120.541 67.5334 120.099C67.4448 119.585 67.2112 119.408 66.6958 119.48L66.3737 119.536L66.6234 121.024ZM64.5215 118.652L67.1226 118.21C68.387 118.001 68.991 118.62 69.152 119.593C69.297 120.445 69.0635 121.024 68.3145 121.273V121.289C69.1198 121.217 69.4581 121.675 69.595 122.527L69.6835 123.057C69.7319 123.379 69.8043 123.797 69.9171 123.926C69.9735 123.998 70.0218 124.046 70.1265 124.086L70.1426 124.175L68.3789 124.48C68.1696 124.175 68.0568 123.556 68.0246 123.315L67.9521 122.889C67.8233 122.181 67.6461 122.02 67.2515 122.077L66.8086 122.149L67.2354 124.665L65.5764 124.946L64.5215 118.652Z" fill="#FEFEFE"/>
<path fill-rule="evenodd" clip-rule="evenodd" d="M73.0581 122.374C73.5413 122.229 73.4849 121.771 73.0259 120.107C72.5588 118.443 72.3817 118.017 71.8824 118.145C71.3992 118.29 71.4555 118.748 71.9146 120.412C72.3978 122.092 72.5749 122.51 73.0581 122.374ZM71.6005 117.06C73.2594 116.602 74.0728 117.342 74.7171 119.641C75.3613 121.94 75.0392 123.001 73.3802 123.443C71.7213 123.901 70.8999 123.162 70.2637 120.863C69.6194 118.588 69.9416 117.526 71.6005 117.06Z" fill="#FEFEFE"/>
<path fill-rule="evenodd" clip-rule="evenodd" d="M74.3232 116.409L75.8936 115.806L76.7875 118.089L76.8036 118.073L77.0694 115.348L78.7444 114.688L78.2451 117.88L81.257 120.565L79.4611 121.272L77.7297 119.56L77.6089 120.179L78.2129 121.755L76.6425 122.374L74.3232 116.409Z" fill="#FEFEFE"/>
<path fill-rule="evenodd" clip-rule="evenodd" d="M80.4354 113.821L82.5372 117.929C82.8191 118.475 83.0527 118.531 83.3426 118.387C83.6244 118.242 83.7211 118.017 83.4311 117.462L81.3293 113.354L82.8272 112.591L84.7358 116.305C85.5572 117.896 85.1143 118.732 83.8419 119.367C82.5775 120.003 81.6514 119.882 80.83 118.29L78.9214 114.584L80.4354 113.821Z" fill="#FEFEFE"/>
<path fill-rule="evenodd" clip-rule="evenodd" d="M85.8381 115.983L85.5723 116.546L85.0166 115.686L85.2824 115.115L83.4302 112.229L84.8556 111.329L86.1441 113.33L86.6917 112.124L87.2635 113.009L86.6917 114.198L87.5695 115.557L89.317 114.464L90.0418 115.597L86.8689 117.607L85.8381 115.983Z" fill="#FEFEFE"/>
<path fill-rule="evenodd" clip-rule="evenodd" d="M89.4378 109.721L90.7182 112.165L91.4671 111.578L89.4378 109.721ZM87.7788 109.327L89.4539 108.033L94.624 112.125L93.2147 113.218L92.3933 112.438L91.3222 113.25L91.8779 114.239L90.4525 115.332L87.7788 109.327Z" fill="#FEFEFE"/>
</svg>
